M48
METRIC,LZ,000.000
;FILE_FORMAT=3:3
;TYPE=PLATED
;Layer: PTH_Through
;EasyEDA v6.5.1, 2022-03-19 16:14:10
;3ebca1db3f2944888bc2407653f8670d,b39d96d8288a45daa3b91a2d81ef2d09,10
;Gerber Generator version 0.2
;Holesize 1 = 0.501 mm
T01C0.501
;Holesize 2 = 0.712 mm
T02C0.712
;Holesize 3 = 0.900 mm
T03C0.900
;Holesize 4 = 0.901 mm
T04C0.901
;Holesize 5 = 0.915 mm
T05C0.915
;Holesize 6 = 0.966 mm
T06C0.966
;Holesize 7 = 1.000 mm
T07C1.000
;Holesize 8 = 1.016 mm
T08C1.016
;Holesize 9 = 1.199 mm
T09C1.199
;Holesize 10 = 1.200 mm
T10C1.200
%
G05
G90
T01
X023114Y027940
X025654Y027940
X028194Y027940
X030734Y027940
X033274Y027940
X035814Y027940
X038354Y027940
X040894Y027940
X043434Y027940
X043434Y035560
X040894Y035560
X038354Y035560
X035814Y035560
X033274Y035560
X030734Y035560
X028194Y035560
X025654Y035560
X023114Y035560
T02
X015240Y048133
X015240Y050673
X020447Y048133
X020447Y050673
X025400Y048006
X025400Y050546
X030226Y053213
X030226Y055753
X038227Y053340
X038227Y055880
X043053Y053721
X045593Y053721
X033020Y045593
X033020Y048133
X038227Y045593
X038227Y048133
X041910Y043434
X044450Y043434
X012700Y017653
X012700Y020193
X017780Y017399
X017780Y019939
X022733Y017653
X022733Y020193
X027813Y017653
X027813Y020193
X032766Y017653
X032766Y020193
X038100Y017780
X038100Y020320
X034290Y006223
X031750Y006223
X056007Y050673
X056007Y053213
X076454Y050673
X076454Y053213
X021717Y006477
X024257Y006477
X048006Y-000508
X050546Y-000508
X048006Y004826
X050546Y004826
X048768Y009652
X048768Y012192
X073787Y004826
X073787Y007366
T03
X051054Y027813
X051054Y037973
X056134Y027686
X056134Y037846
X061214Y027940
X061214Y038100
X063627Y000000
X063627Y010160
X068453Y000127
X068453Y010287
X032131Y002413
X021971Y002413
X058674Y010033
X058674Y-000127
X078359Y007493
X088519Y007493
X078867Y045720
X089027Y045720
T04
X031877Y011176
X041021Y011176
T05
X082042Y052451
X084582Y052451
X061341Y017145
X061341Y023749
X032766Y056896
T06
X094996Y042799
X094996Y040259
T07
X070231Y023467
X070231Y019967
X075664Y038608
X072164Y038608
X096238Y009398
X092738Y009398
X053340Y022733
X051181Y020193
X053340Y017653
X077597Y017263
X080137Y017263
X082677Y017263
X085217Y017263
X085217Y025400
X082677Y025400
X080137Y025400
X077597Y025400
T08
X010033Y-002032
X015113Y-002032
X020193Y-002032
X030734Y-002794
X035814Y-002794
X040894Y-002794
T09
X010668Y011303
X025908Y011303
T10
X092837Y054102
X097917Y054102
X097282Y028575
X097282Y023495
X065385Y052710
X067965Y052700
X062845Y052710
M30
