G04 Layer: TopLayer*
G04 EasyEDA v6.5.1, 2022-03-19 16:14:10*
G04 3ebca1db3f2944888bc2407653f8670d,b39d96d8288a45daa3b91a2d81ef2d09,10*
G04 Gerber Generator version 0.2*
G04 Scale: 100 percent, Rotated: No, Reflected: No *
G04 Dimensions in millimeters *
G04 leading zeros omitted , absolute positions ,4 integer and 5 decimal *
%FSLAX45Y45*%
%MOMM*%

%ADD11C,1.0000*%
%ADD12C,1.1938*%
%ADD13C,1.5240*%
%ADD14C,1.6000*%
%ADD15C,2.0000*%
%ADD16C,1.8796*%
%ADD17C,1.6510*%
%ADD19R,3.8100X2.5400*%
%ADD20C,2.2200*%
%ADD22C,1.8000*%
%ADD24C,2.5400*%

%LPD*%
D11*
X5613402Y2768610D02*
G01*
X5613402Y2044710D01*
X5334002Y1765310D01*
X8902702Y4572010D02*
G01*
X9448802Y4025910D01*
X9499602Y4025910D01*
X1066802Y1130310D02*
G01*
X1245161Y951951D01*
X3936443Y951951D01*
X4102102Y1117610D01*
X8851902Y749310D02*
G01*
X9083296Y749310D01*
X9273796Y939810D01*
X7759702Y1726270D02*
G01*
X7293536Y1726270D01*
X7023102Y1996704D01*
X7759702Y2540010D02*
G01*
X7216396Y2540010D01*
X7023102Y2346716D01*
X7835902Y749310D02*
G01*
X7569202Y482610D01*
X7378702Y482610D01*
X8267702Y1726270D02*
G01*
X8103770Y1562338D01*
X5473931Y1562338D01*
X4876802Y965210D01*
X3581402Y-279389D02*
G01*
X4826002Y965210D01*
X4876802Y965210D01*
X5867402Y1003310D02*
G01*
X5321302Y1003310D01*
X4800602Y482610D01*
X4800602Y482610D02*
G01*
X4800602Y-50789D01*
X6284495Y5270992D02*
G01*
X6284495Y5040868D01*
X9283702Y5410210D02*
G01*
X8369302Y5410210D01*
X8204202Y5245110D01*
X8204202Y5245110D02*
G01*
X8026402Y5067310D01*
X7645402Y5067310D01*
X6284495Y5040868D02*
G01*
X6383073Y4942291D01*
X7520383Y4942291D01*
X7645402Y5067310D01*
X3187702Y1117610D02*
G01*
X3362022Y1291930D01*
X4165805Y1291930D01*
X4279089Y1178646D01*
X4279089Y1045982D01*
X3855417Y622310D01*
X3429002Y622310D01*
X3835402Y2794010D02*
G01*
X3681148Y2639755D01*
X3681148Y1906864D01*
X3810002Y1778010D01*
X3835402Y3556010D02*
G01*
X3835402Y4025910D01*
X3302002Y4559310D01*
X3073402Y-279389D02*
G01*
X3220519Y-426506D01*
X4678885Y-426506D01*
X5054602Y-50789D01*
X6845302Y12710D02*
G01*
X6375402Y12710D01*
X6362702Y10D01*
X6362702Y10D02*
G01*
X6350002Y-12689D01*
X5867402Y-12689D01*
X5867402Y-12689D02*
G01*
X5092702Y-12689D01*
X5054602Y-50789D01*
X9791702Y5119583D02*
G01*
X8583729Y5119583D01*
X8458202Y5245110D01*
X9791702Y5410210D02*
G01*
X9791702Y5119583D01*
X8521702Y1726270D02*
G01*
X9652942Y2857510D01*
X9728202Y2857510D01*
X7645402Y5321310D02*
G01*
X7393840Y5069748D01*
X6727700Y5069748D01*
X6538495Y5258953D01*
X6538495Y5270992D01*
X5600702Y5321310D02*
G01*
X4610102Y5321310D01*
X4559302Y5372110D01*
X1270002Y1765310D02*
G01*
X1466598Y1568714D01*
X4527298Y1568714D01*
X4876802Y1219210D01*
X3822702Y5588010D02*
G01*
X3035302Y5588010D01*
X3022602Y5575310D01*
X4305302Y5372110D02*
G01*
X4216402Y5461010D01*
X3162302Y5461010D01*
X3022602Y5321310D01*
X5613402Y3797310D02*
G01*
X5613402Y3784610D01*
X6121402Y3810010D02*
G01*
X5626102Y3810010D01*
X5613402Y3797310D01*
X2425702Y647710D02*
G01*
X3149602Y647710D01*
X3175002Y622310D01*
X3276602Y1765310D02*
G01*
X2781302Y1765310D01*
X2781302Y1765310D02*
G01*
X2273302Y1765310D01*
X2273302Y1765310D02*
G01*
X1857377Y1765310D01*
X1857377Y1765310D02*
G01*
X1803402Y1765310D01*
X1778002Y1739910D01*
X1857377Y1765310D02*
G01*
X1524002Y1765310D01*
X1270002Y2019310D01*
X1524002Y5067310D02*
G01*
X2044702Y5067310D01*
X5600702Y5067310D02*
G01*
X4076702Y5067310D01*
X3822702Y4813310D01*
X3822702Y4813310D02*
G01*
X3302002Y4813310D01*
X3302002Y4813310D02*
G01*
X3060702Y5054610D01*
X2540002Y5054610D01*
X2540002Y5054610D02*
G01*
X2057402Y5054610D01*
X2044702Y5067310D01*
X5613402Y3797310D02*
G01*
X5105402Y3797310D01*
X5105402Y3797310D02*
G01*
X4375736Y3067644D01*
X3601036Y3067644D01*
X3327402Y2794010D01*
X3244093Y5588012D02*
G01*
X3244093Y5657093D01*
X3276600Y5689600D01*
X3276600Y5715000D01*
D12*
G01*
X1524000Y4813300D03*
G01*
X1524000Y5067300D03*
G01*
X2044700Y4813300D03*
G01*
X2044700Y5067300D03*
G01*
X2540000Y4800600D03*
G01*
X2540000Y5054600D03*
G01*
X3022600Y5321300D03*
G01*
X3022600Y5575300D03*
G01*
X3822700Y5334000D03*
G01*
X3822700Y5588000D03*
G01*
X4305300Y5372100D03*
G01*
X4559300Y5372100D03*
G01*
X3302000Y4559300D03*
G01*
X3302000Y4813300D03*
G01*
X3822700Y4559300D03*
G01*
X3822700Y4813300D03*
G01*
X4191000Y4343400D03*
G01*
X4445000Y4343400D03*
G01*
X1270000Y1765300D03*
G01*
X1270000Y2019300D03*
G01*
X1778000Y1739900D03*
G01*
X1778000Y1993900D03*
G01*
X2273300Y1765300D03*
G01*
X2273300Y2019300D03*
G01*
X2781300Y1765300D03*
G01*
X2781300Y2019300D03*
G01*
X3276600Y1765300D03*
G01*
X3276600Y2019300D03*
G01*
X3810000Y1778000D03*
G01*
X3810000Y2032000D03*
G01*
X3429000Y622300D03*
G01*
X3175000Y622300D03*
G01*
X5600700Y5067300D03*
G01*
X5600700Y5321300D03*
G01*
X7645400Y5067300D03*
G01*
X7645400Y5321300D03*
G01*
X2171700Y647700D03*
G01*
X2425700Y647700D03*
G01*
X4800600Y-50800D03*
G01*
X5054600Y-50800D03*
G01*
X4800600Y482600D03*
G01*
X5054600Y482600D03*
G01*
X4876800Y965200D03*
G01*
X4876800Y1219200D03*
G01*
X7378700Y482600D03*
G01*
X7378700Y736600D03*
D13*
G01*
X8204200Y5245100D03*
G01*
X8458200Y5245100D03*
D14*
G01*
X7023100Y2346705D03*
G01*
X7023100Y1996694D03*
G01*
X7566406Y3860800D03*
G01*
X7216393Y3860800D03*
G01*
X9623806Y939800D03*
G01*
X9273793Y939800D03*
D13*
G01*
X6134100Y1714500D03*
G01*
X6134100Y2374900D03*
D15*
G01*
X3187700Y1117600D03*
G01*
X4102100Y1117600D03*
D16*
G01*
X1066800Y1130300D03*
G01*
X2590800Y1130300D03*
D17*
G01*
X9499600Y4279900D03*
G01*
X9499600Y4025900D03*
G36*
X9664700Y5600700D02*
G01*
X9918700Y5600700D01*
X9918700Y5219700D01*
X9664700Y5219700D01*
G37*
D19*
G01*
X9728200Y2349500D03*
D20*
G01*
X5334000Y2273300D03*
G01*
X5118100Y2019300D03*
G01*
X5334000Y1765300D03*
D16*
G01*
X5105400Y2781300D03*
G01*
X5105400Y3797300D03*
G01*
X5613400Y2768600D03*
G01*
X5613400Y3784600D03*
G01*
X6121400Y2794000D03*
G01*
X6121400Y3810000D03*
G01*
X6362700Y0D03*
G01*
X6362700Y1016000D03*
G01*
X6845300Y12700D03*
G01*
X6845300Y1028700D03*
G01*
X3213100Y241300D03*
G01*
X2197100Y241300D03*
G01*
X5867400Y1003300D03*
G01*
X5867400Y-12700D03*
G01*
X7835900Y749300D03*
G01*
X8851900Y749300D03*
G01*
X7886700Y4572000D03*
G01*
X8902700Y4572000D03*
D13*
G01*
X1003300Y-203200D03*
G01*
X1511300Y-203200D03*
G01*
X2019300Y-203200D03*
G01*
X3073400Y-279400D03*
G01*
X3581400Y-279400D03*
G01*
X4089400Y-279400D03*
D15*
G01*
X2311400Y2794000D03*
G01*
X2565400Y2794000D03*
G01*
X2819400Y2794000D03*
G01*
X3073400Y2794000D03*
G01*
X3327400Y2794000D03*
G01*
X3581400Y2794000D03*
G01*
X3835400Y2794000D03*
G01*
X4089400Y2794000D03*
G01*
X4343400Y2794000D03*
G01*
X4343400Y3556000D03*
G01*
X4089400Y3556000D03*
G01*
X3835400Y3556000D03*
G01*
X3581400Y3556000D03*
G01*
X3327400Y3556000D03*
G01*
X3073400Y3556000D03*
G01*
X2819400Y3556000D03*
G01*
X2565400Y3556000D03*
G01*
X2311400Y3556000D03*
G36*
X7669700Y1816262D02*
G01*
X7849699Y1816262D01*
X7849699Y1636262D01*
X7669700Y1636262D01*
G37*
D22*
G01*
X8013700Y1726260D03*
G01*
X8267700Y1726260D03*
G01*
X8521700Y1726260D03*
G01*
X8521700Y2540000D03*
G01*
X8267700Y2540000D03*
G01*
X8013700Y2540000D03*
G01*
X7759700Y2540000D03*
G36*
X6194498Y5401000D02*
G01*
X6374498Y5401000D01*
X6374498Y5141000D01*
X6194498Y5141000D01*
G37*
D13*
G01*
X3276600Y5689600D03*
D24*
X9283700Y5473700D02*
G01*
X9283700Y5346700D01*
X9791700Y2857500D02*
G01*
X9664700Y2857500D01*
D22*
X6538493Y5311007D02*
G01*
X6538493Y5231008D01*
X6796506Y5310017D02*
G01*
X6796506Y5230017D01*
M02*
