G04 Layer: BottomSilkscreenLayer*
G04 EasyEDA v6.5.1, 2022-03-19 16:14:10*
G04 3ebca1db3f2944888bc2407653f8670d,b39d96d8288a45daa3b91a2d81ef2d09,10*
G04 Gerber Generator version 0.2*
G04 Scale: 100 percent, Rotated: No, Reflected: No *
G04 Dimensions in millimeters *
G04 leading zeros omitted , absolute positions ,4 integer and 5 decimal *
%FSLAX45Y45*%
%MOMM*%

%ADD10C,0.0001*%

%LPD*%
G36*
X8920734Y4239666D02*
G01*
X8907983Y4239463D01*
X8895283Y4239006D01*
X8882735Y4238193D01*
X8870442Y4237024D01*
X8858453Y4235551D01*
X8846820Y4233722D01*
X8835694Y4231589D01*
X8825128Y4229150D01*
X8812834Y4225798D01*
X8800795Y4222140D01*
X8788857Y4218076D01*
X8777173Y4213707D01*
X8765641Y4208932D01*
X8754262Y4203903D01*
X8743137Y4198518D01*
X8732215Y4192778D01*
X8719451Y4185513D01*
X8941358Y4185513D01*
X8941358Y4093108D01*
X8908745Y4093108D01*
X8908745Y4185513D01*
X8719451Y4185513D01*
X8710980Y4180382D01*
X8700719Y4173728D01*
X8690660Y4166768D01*
X8680856Y4159504D01*
X8671255Y4151985D01*
X8661908Y4144111D01*
X8652814Y4136034D01*
X8643975Y4127601D01*
X8635441Y4118965D01*
X8627110Y4110024D01*
X8619083Y4100829D01*
X8606779Y4085590D01*
X8667597Y4085590D01*
X8668207Y4088180D01*
X8669832Y4090670D01*
X8672677Y4093718D01*
X8675674Y4095953D01*
X8678824Y4097324D01*
X8682177Y4097883D01*
X8685834Y4097578D01*
X8689797Y4096359D01*
X8694166Y4094175D01*
X8698941Y4091076D01*
X8704275Y4087012D01*
X8710168Y4081932D01*
X8716721Y4075836D01*
X8732926Y4059478D01*
X8739733Y4052214D01*
X8744559Y4046524D01*
X8747506Y4042054D01*
X8748826Y4038549D01*
X8748674Y4035602D01*
X8747252Y4032910D01*
X8744762Y4030065D01*
X8741562Y4027322D01*
X8738311Y4025442D01*
X8734856Y4024325D01*
X8731250Y4024122D01*
X8727338Y4024731D01*
X8723122Y4026306D01*
X8718550Y4028744D01*
X8713622Y4032148D01*
X8708186Y4036466D01*
X8702243Y4041800D01*
X8695791Y4048150D01*
X8681720Y4063136D01*
X8676233Y4069486D01*
X8672169Y4074718D01*
X8669426Y4079036D01*
X8667953Y4082592D01*
X8667597Y4085590D01*
X8606779Y4085590D01*
X8600236Y4076801D01*
X8593175Y4066743D01*
X8586419Y4056430D01*
X8580018Y4045915D01*
X8573871Y4035196D01*
X8568029Y4024223D01*
X8562543Y4013047D01*
X8557361Y4001668D01*
X8552484Y3990086D01*
X8548014Y3978300D01*
X8543798Y3966311D01*
X8539988Y3954170D01*
X8536533Y3941978D01*
X8533688Y3930345D01*
X8531352Y3918915D01*
X8529523Y3907332D01*
X8528151Y3895242D01*
X8527237Y3882186D01*
X8526627Y3867861D01*
X8526390Y3840530D01*
X8583218Y3840530D01*
X8583625Y3844493D01*
X8584387Y3848252D01*
X8585708Y3851249D01*
X8587994Y3853434D01*
X8591702Y3855110D01*
X8597239Y3856278D01*
X8605062Y3857091D01*
X8629091Y3858260D01*
X8648903Y3858768D01*
X8656574Y3858717D01*
X8662873Y3858412D01*
X8668004Y3857802D01*
X8672068Y3856888D01*
X8675166Y3855567D01*
X8677402Y3853891D01*
X8678926Y3851706D01*
X8679840Y3849065D01*
X8680351Y3845814D01*
X8737549Y3845814D01*
X8737752Y3864610D01*
X8738514Y3879342D01*
X8739225Y3885641D01*
X8740140Y3891432D01*
X8741308Y3896868D01*
X8742832Y3902100D01*
X8744661Y3907383D01*
X8749385Y3918458D01*
X8755532Y3930751D01*
X8762390Y3942587D01*
X8769858Y3953814D01*
X8777935Y3964482D01*
X8786622Y3974490D01*
X8795766Y3983837D01*
X8805418Y3992372D01*
X8815476Y4000195D01*
X8825941Y4007154D01*
X8836761Y4013250D01*
X8842248Y4015943D01*
X8853271Y4020464D01*
X8859113Y4022496D01*
X8871407Y4025950D01*
X8877808Y4027474D01*
X8890965Y4029862D01*
X8904478Y4031589D01*
X8918143Y4032605D01*
X8931757Y4032859D01*
X8945118Y4032351D01*
X8958072Y4031081D01*
X8970365Y4029100D01*
X8981846Y4026306D01*
X8985564Y4025137D01*
X9093860Y4025137D01*
X9094368Y4028744D01*
X9096044Y4033012D01*
X9098940Y4037990D01*
X9102953Y4043629D01*
X9108186Y4049979D01*
X9114586Y4057040D01*
X9129268Y4071670D01*
X9140698Y4082237D01*
X9145270Y4086047D01*
X9149232Y4088892D01*
X9152686Y4090822D01*
X9155785Y4091940D01*
X9158528Y4092244D01*
X9161068Y4091838D01*
X9163507Y4090720D01*
X9165945Y4088942D01*
X9168536Y4086606D01*
X9171686Y4083100D01*
X9173616Y4079798D01*
X9174124Y4076344D01*
X9173057Y4072382D01*
X9170263Y4067556D01*
X9165590Y4061460D01*
X9158833Y4053687D01*
X9143136Y4037025D01*
X9137142Y4031234D01*
X9131706Y4026611D01*
X9126728Y4022953D01*
X9122105Y4020261D01*
X9117685Y4018381D01*
X9113418Y4017365D01*
X9109049Y4017010D01*
X9103664Y4017365D01*
X9099448Y4018330D01*
X9096451Y4019956D01*
X9094571Y4022191D01*
X9093860Y4025137D01*
X8985564Y4025137D01*
X8992311Y4022750D01*
X9004808Y4017416D01*
X9016390Y4011828D01*
X9027160Y4005834D01*
X9037167Y3999433D01*
X9046514Y3992524D01*
X9055252Y3985056D01*
X9059468Y3981094D01*
X9067444Y3972661D01*
X9074962Y3963466D01*
X9082176Y3953510D01*
X9089085Y3942638D01*
X9095841Y3930904D01*
X9099143Y3924655D01*
X9103461Y3914952D01*
X9105392Y3909618D01*
X9108694Y3898239D01*
X9111335Y3885996D01*
X9113266Y3873042D01*
X9114485Y3859733D01*
X9114993Y3846169D01*
X9114993Y3840530D01*
X9170162Y3840530D01*
X9170568Y3844493D01*
X9171330Y3848252D01*
X9172651Y3851249D01*
X9174937Y3853434D01*
X9178645Y3855110D01*
X9184233Y3856278D01*
X9192006Y3857091D01*
X9216034Y3858260D01*
X9235846Y3858768D01*
X9243517Y3858717D01*
X9249867Y3858412D01*
X9254998Y3857802D01*
X9259011Y3856888D01*
X9262110Y3855567D01*
X9264345Y3853891D01*
X9265869Y3851706D01*
X9266834Y3849065D01*
X9267291Y3845915D01*
X9267444Y3842207D01*
X9267139Y3839210D01*
X9265920Y3836873D01*
X9263481Y3835146D01*
X9259366Y3833876D01*
X9253118Y3833063D01*
X9244482Y3832555D01*
X9218117Y3832250D01*
X9190228Y3832504D01*
X9181541Y3832961D01*
X9175699Y3833876D01*
X9172244Y3835349D01*
X9170568Y3837533D01*
X9170162Y3840530D01*
X9114993Y3840530D01*
X9114790Y3832555D01*
X9113824Y3819194D01*
X9112199Y3806240D01*
X9109760Y3793947D01*
X9108287Y3788054D01*
X9106611Y3782466D01*
X9104731Y3777081D01*
X9099600Y3765042D01*
X9096654Y3759098D01*
X9090050Y3747515D01*
X9086392Y3741877D01*
X9078417Y3730955D01*
X9069578Y3720541D01*
X9064904Y3715512D01*
X9054998Y3706012D01*
X9044381Y3697122D01*
X9033205Y3689045D01*
X9021419Y3681729D01*
X9007348Y3674313D01*
X9080144Y3674313D01*
X9080347Y3676548D01*
X9082379Y3680764D01*
X9084818Y3684015D01*
X9087662Y3686251D01*
X9090964Y3687521D01*
X9094622Y3687775D01*
X9098737Y3687064D01*
X9103207Y3685387D01*
X9108135Y3682695D01*
X9113469Y3678986D01*
X9119209Y3674313D01*
X9125356Y3668674D01*
X9131909Y3662019D01*
X9139072Y3654196D01*
X9145117Y3647135D01*
X9149994Y3640836D01*
X9153753Y3635248D01*
X9156344Y3630320D01*
X9157868Y3626154D01*
X9158224Y3622649D01*
X9157411Y3619804D01*
X9155531Y3617620D01*
X9152534Y3616096D01*
X9148419Y3615182D01*
X9143187Y3614877D01*
X9138869Y3615182D01*
X9134551Y3616248D01*
X9130131Y3618077D01*
X9125508Y3620770D01*
X9120530Y3624376D01*
X9115145Y3629050D01*
X9109151Y3634790D01*
X9102445Y3641750D01*
X9097111Y3647643D01*
X9092387Y3653282D01*
X9088374Y3658565D01*
X9085072Y3663391D01*
X9082582Y3667658D01*
X9080906Y3671366D01*
X9080144Y3674313D01*
X9007348Y3674313D01*
X9000032Y3670757D01*
X8991346Y3667150D01*
X8982964Y3664559D01*
X8973972Y3662832D01*
X8963456Y3661816D01*
X8950604Y3661257D01*
X8934551Y3661054D01*
X8906764Y3661105D01*
X8892336Y3661460D01*
X8880805Y3662222D01*
X8871204Y3663645D01*
X8866835Y3664661D01*
X8858453Y3667404D01*
X8849664Y3671265D01*
X8839606Y3676446D01*
X8827922Y3682847D01*
X8816898Y3689553D01*
X8806789Y3696563D01*
X8797493Y3703878D01*
X8789009Y3711651D01*
X8781135Y3720033D01*
X8773871Y3728974D01*
X8767064Y3738676D01*
X8760663Y3749243D01*
X8754618Y3760673D01*
X8748877Y3772915D01*
X8744407Y3784092D01*
X8742680Y3789426D01*
X8741257Y3794810D01*
X8740140Y3800348D01*
X8739225Y3806240D01*
X8738057Y3819651D01*
X8737600Y3836060D01*
X8737549Y3845814D01*
X8680351Y3845814D01*
X8680450Y3842207D01*
X8680145Y3839210D01*
X8678976Y3836873D01*
X8676538Y3835146D01*
X8672372Y3833876D01*
X8666175Y3833063D01*
X8657539Y3832555D01*
X8631174Y3832250D01*
X8603234Y3832504D01*
X8594598Y3832961D01*
X8588756Y3833876D01*
X8585250Y3835349D01*
X8583574Y3837533D01*
X8583218Y3840530D01*
X8526390Y3840530D01*
X8526526Y3827729D01*
X8526983Y3813301D01*
X8527796Y3799687D01*
X8528964Y3786733D01*
X8530539Y3774287D01*
X8532520Y3762248D01*
X8535009Y3750462D01*
X8537956Y3738829D01*
X8541410Y3727145D01*
X8545423Y3715308D01*
X8550046Y3703218D01*
X8555278Y3690670D01*
X8561171Y3677564D01*
X8567724Y3663746D01*
X8573160Y3652926D01*
X8578494Y3643071D01*
X8583930Y3633876D01*
X8589670Y3625087D01*
X8598998Y3612387D01*
X8677706Y3612387D01*
X8678062Y3615537D01*
X8679789Y3619246D01*
X8682939Y3623818D01*
X8687663Y3629456D01*
X8694115Y3636467D01*
X8708999Y3651504D01*
X8715044Y3657142D01*
X8720582Y3661968D01*
X8725662Y3665982D01*
X8730284Y3669233D01*
X8734552Y3671671D01*
X8738412Y3673398D01*
X8741918Y3674364D01*
X8745118Y3674567D01*
X8747963Y3674110D01*
X8750604Y3672890D01*
X8752941Y3671011D01*
X8754821Y3668623D01*
X8756040Y3666032D01*
X8756599Y3663137D01*
X8756396Y3659936D01*
X8755532Y3656482D01*
X8754008Y3652774D01*
X8751722Y3648710D01*
X8748725Y3644392D01*
X8745016Y3639718D01*
X8740597Y3634740D01*
X8735466Y3629406D01*
X8722817Y3617518D01*
X8716721Y3612235D01*
X8711336Y3607917D01*
X8706510Y3604463D01*
X8702192Y3601923D01*
X8698280Y3600246D01*
X8694775Y3599434D01*
X8691575Y3599383D01*
X8688578Y3600196D01*
X8685733Y3601720D01*
X8682990Y3604006D01*
X8680246Y3607003D01*
X8678468Y3609644D01*
X8677706Y3612387D01*
X8598998Y3612387D01*
X8610803Y3598367D01*
X8619845Y3588410D01*
X8630259Y3577488D01*
X8660638Y3547110D01*
X8671153Y3537153D01*
X8679716Y3529533D01*
X8909456Y3529533D01*
X8909507Y3539490D01*
X8910421Y3564991D01*
X8911031Y3575354D01*
X8911894Y3583228D01*
X8913012Y3588918D01*
X8914536Y3592779D01*
X8916568Y3595268D01*
X8919210Y3596690D01*
X8922562Y3597401D01*
X8926423Y3597859D01*
X8929776Y3597859D01*
X8932570Y3597300D01*
X8934907Y3596132D01*
X8936786Y3594150D01*
X8938260Y3591306D01*
X8939377Y3587496D01*
X8940190Y3582517D01*
X8940749Y3576370D01*
X8941308Y3559860D01*
X8941206Y3539134D01*
X8940901Y3530346D01*
X8940241Y3522878D01*
X8939326Y3516629D01*
X8938056Y3511550D01*
X8936380Y3507638D01*
X8934348Y3504793D01*
X8931808Y3502914D01*
X8928811Y3501999D01*
X8925356Y3501948D01*
X8921292Y3502761D01*
X8916670Y3504285D01*
X8914384Y3505606D01*
X8912555Y3507740D01*
X8911234Y3510991D01*
X8910269Y3515563D01*
X8909710Y3521659D01*
X8909456Y3529533D01*
X8679716Y3529533D01*
X8685276Y3524808D01*
X8694166Y3517849D01*
X8703005Y3511651D01*
X8712200Y3505860D01*
X8722156Y3500221D01*
X8733231Y3494481D01*
X8745778Y3488334D01*
X8757462Y3482898D01*
X8769197Y3477818D01*
X8780932Y3473145D01*
X8792616Y3468827D01*
X8804351Y3464915D01*
X8816035Y3461359D01*
X8827770Y3458159D01*
X8839454Y3455314D01*
X8851188Y3452876D01*
X8862872Y3450793D01*
X8874556Y3449116D01*
X8886240Y3447796D01*
X8897924Y3446830D01*
X8909608Y3446272D01*
X8921292Y3446068D01*
X8932976Y3446272D01*
X8944610Y3446830D01*
X8956294Y3447745D01*
X8967927Y3449015D01*
X8979560Y3450691D01*
X8991142Y3452774D01*
X9002776Y3455212D01*
X9014815Y3458108D01*
X9026753Y3461461D01*
X9038590Y3465169D01*
X9050274Y3469335D01*
X9061805Y3473805D01*
X9073235Y3478682D01*
X9084462Y3483914D01*
X9095536Y3489502D01*
X9106458Y3495446D01*
X9117177Y3501694D01*
X9127693Y3508298D01*
X9138056Y3515156D01*
X9148165Y3522370D01*
X9158071Y3529888D01*
X9167774Y3537712D01*
X9177223Y3545789D01*
X9186418Y3554171D01*
X9195358Y3562756D01*
X9204045Y3571646D01*
X9212427Y3580790D01*
X9220555Y3590137D01*
X9228429Y3599738D01*
X9235948Y3609543D01*
X9243161Y3619550D01*
X9250121Y3629812D01*
X9256725Y3640226D01*
X9262973Y3650843D01*
X9268866Y3661613D01*
X9274454Y3672535D01*
X9279686Y3683660D01*
X9284512Y3694937D01*
X9288983Y3706317D01*
X9293047Y3717848D01*
X9296704Y3729532D01*
X9300006Y3741267D01*
X9302851Y3753154D01*
X9305036Y3763975D01*
X9306864Y3775354D01*
X9308338Y3787241D01*
X9309455Y3799484D01*
X9310268Y3812082D01*
X9310725Y3824935D01*
X9310878Y3837940D01*
X9310725Y3851046D01*
X9310217Y3864203D01*
X9309404Y3877259D01*
X9308287Y3890213D01*
X9306864Y3902964D01*
X9305086Y3915460D01*
X9303054Y3927551D01*
X9300718Y3939235D01*
X9298127Y3950360D01*
X9295180Y3960926D01*
X9291980Y3970832D01*
X9287560Y3982872D01*
X9282785Y3994759D01*
X9277604Y4006494D01*
X9272117Y4018026D01*
X9266275Y4029405D01*
X9256826Y4046067D01*
X9250172Y4056887D01*
X9243161Y4067505D01*
X9235897Y4077817D01*
X9228277Y4087876D01*
X9220403Y4097680D01*
X9212224Y4107179D01*
X9203791Y4116374D01*
X9195054Y4125315D01*
X9186062Y4134002D01*
X9176969Y4142333D01*
X9167672Y4150360D01*
X9158274Y4158030D01*
X9148673Y4165346D01*
X9138970Y4172305D01*
X9129064Y4179011D01*
X9119057Y4185310D01*
X9108846Y4191304D01*
X9098483Y4196994D01*
X9087967Y4202328D01*
X9077248Y4207306D01*
X9066377Y4212031D01*
X9055354Y4216400D01*
X9044178Y4220413D01*
X9032798Y4224121D01*
X9021267Y4227525D01*
X9010294Y4230370D01*
X8999626Y4232706D01*
X8988450Y4234637D01*
X8976766Y4236313D01*
X8964726Y4237634D01*
X8952382Y4238599D01*
X8939784Y4239260D01*
G37*
G36*
X8926474Y4002938D02*
G01*
X8914892Y4002328D01*
X8903309Y4000804D01*
X8897518Y3999687D01*
X8886037Y3996740D01*
X8874760Y3992879D01*
X8863634Y3988104D01*
X8858199Y3985412D01*
X8847531Y3979316D01*
X8842349Y3976014D01*
X8837269Y3972458D01*
X8827414Y3964686D01*
X8818016Y3956151D01*
X8809736Y3947464D01*
X8802319Y3938320D01*
X8795715Y3928770D01*
X8789873Y3918915D01*
X8784894Y3908755D01*
X8782659Y3903573D01*
X8778849Y3893058D01*
X8775801Y3882339D01*
X8773566Y3871518D01*
X8772042Y3860596D01*
X8771331Y3849573D01*
X8771382Y3838600D01*
X8772194Y3827627D01*
X8773718Y3816705D01*
X8776004Y3805986D01*
X8779052Y3795369D01*
X8782812Y3785006D01*
X8787282Y3774846D01*
X8792464Y3765042D01*
X8798356Y3755593D01*
X8804960Y3746500D01*
X8812225Y3737864D01*
X8820251Y3729685D01*
X8828938Y3722014D01*
X8838285Y3714953D01*
X8848293Y3708450D01*
X8858758Y3702812D01*
X8869172Y3698087D01*
X8879636Y3694176D01*
X8890203Y3691128D01*
X8900820Y3688943D01*
X8911386Y3687470D01*
X8921902Y3686860D01*
X8932367Y3686911D01*
X8942730Y3687775D01*
X8952992Y3689299D01*
X8962999Y3691534D01*
X8972854Y3694480D01*
X8982506Y3698036D01*
X8991854Y3702253D01*
X9000896Y3707079D01*
X9009634Y3712514D01*
X9018016Y3718509D01*
X9025991Y3725062D01*
X9033560Y3732174D01*
X9040672Y3739743D01*
X9047276Y3747871D01*
X9053372Y3756456D01*
X9058910Y3765499D01*
X9063837Y3774948D01*
X9068206Y3784854D01*
X9071864Y3795166D01*
X9074861Y3805834D01*
X9077198Y3816858D01*
X9078722Y3828186D01*
X9079230Y3833977D01*
X9079585Y3845814D01*
X9079280Y3859072D01*
X9078366Y3870655D01*
X9076791Y3881120D01*
X9074454Y3890772D01*
X9072981Y3895445D01*
X9069324Y3904691D01*
X9064142Y3915257D01*
X9060942Y3921048D01*
X9053830Y3932123D01*
X9045854Y3942638D01*
X9037218Y3952494D01*
X9027871Y3961587D01*
X9022943Y3965905D01*
X9012732Y3973880D01*
X9002014Y3980992D01*
X8990838Y3987190D01*
X8985148Y3989984D01*
X8979357Y3992473D01*
X8967571Y3996740D01*
X8961577Y3998468D01*
X8949486Y4001058D01*
X8943797Y4001922D01*
X8932265Y4002836D01*
G37*
G36*
X9131554Y3272993D02*
G01*
X9087561Y3270808D01*
X9079687Y3270148D01*
X9073743Y3269284D01*
X9069425Y3268167D01*
X9066530Y3266643D01*
X9064752Y3264662D01*
X9063837Y3262071D01*
X9063634Y3258870D01*
X9064548Y3253486D01*
X9067749Y3249879D01*
X9073997Y3247644D01*
X9094571Y3245002D01*
X9100769Y3242564D01*
X9103664Y3238296D01*
X9104376Y3231388D01*
X9103766Y3224885D01*
X9101632Y3220821D01*
X9097467Y3218688D01*
X9083852Y3217519D01*
X9079687Y3215132D01*
X9077706Y3210153D01*
X9077198Y3201822D01*
X9077706Y3193440D01*
X9079687Y3188512D01*
X9083852Y3186125D01*
X9097467Y3184906D01*
X9101632Y3182823D01*
X9103766Y3178759D01*
X9104376Y3172256D01*
X9103664Y3165297D01*
X9100769Y3161030D01*
X9094571Y3158642D01*
X9073845Y3155950D01*
X9067342Y3153511D01*
X9063634Y3149498D01*
X9061907Y3143402D01*
X9061500Y3139541D01*
X9061704Y3136595D01*
X9062974Y3134410D01*
X9065514Y3132937D01*
X9069781Y3131972D01*
X9075978Y3131464D01*
X9095841Y3131159D01*
X9131554Y3131159D01*
G37*
G36*
X9395155Y3272485D02*
G01*
X9375444Y3272180D01*
X9369196Y3271621D01*
X9364878Y3270605D01*
X9362135Y3269030D01*
X9360611Y3266744D01*
X9359950Y3263646D01*
X9359798Y3259582D01*
X9360204Y3256127D01*
X9361322Y3251250D01*
X9365386Y3238195D01*
X9371431Y3222142D01*
X9378848Y3204921D01*
X9392259Y3174695D01*
X9396374Y3164992D01*
X9397847Y3160725D01*
X9396374Y3159810D01*
X9392259Y3159048D01*
X9386214Y3158540D01*
X9368840Y3157880D01*
X9363100Y3156000D01*
X9360458Y3151886D01*
X9359798Y3144774D01*
X9359950Y3140405D01*
X9360560Y3137103D01*
X9362033Y3134715D01*
X9364726Y3133039D01*
X9368993Y3132023D01*
X9375241Y3131464D01*
X9395155Y3131159D01*
X9414916Y3131464D01*
X9421215Y3132023D01*
X9425482Y3133039D01*
X9428226Y3134664D01*
X9429699Y3137001D01*
X9430359Y3140202D01*
X9430461Y3144469D01*
X9430105Y3147974D01*
X9428988Y3152902D01*
X9424873Y3166110D01*
X9418828Y3182213D01*
X9411462Y3199485D01*
X9398000Y3229559D01*
X9393936Y3239160D01*
X9392412Y3243275D01*
X9393936Y3244037D01*
X9398000Y3244697D01*
X9404045Y3245154D01*
X9421469Y3245764D01*
X9427210Y3247644D01*
X9429851Y3251708D01*
X9430461Y3258870D01*
X9430359Y3263239D01*
X9429750Y3266541D01*
X9428276Y3268929D01*
X9425584Y3270605D01*
X9421266Y3271621D01*
X9415018Y3272180D01*
G37*
G36*
X9274810Y3272485D02*
G01*
X9262380Y3204514D01*
X9289186Y3204514D01*
X9289338Y3209798D01*
X9289796Y3214116D01*
X9290456Y3217062D01*
X9291269Y3218129D01*
X9292285Y3217062D01*
X9293504Y3214116D01*
X9294774Y3209798D01*
X9295942Y3204514D01*
X9296552Y3199231D01*
X9296400Y3194913D01*
X9295434Y3192018D01*
X9293860Y3190951D01*
X9292031Y3192018D01*
X9290558Y3194913D01*
X9289542Y3199231D01*
X9289186Y3204514D01*
X9262380Y3204514D01*
X9254794Y3162147D01*
X9252762Y3148482D01*
X9252305Y3143504D01*
X9252204Y3139541D01*
X9252407Y3136544D01*
X9253016Y3134360D01*
X9253982Y3132886D01*
X9255302Y3131921D01*
X9257030Y3131413D01*
X9259062Y3131159D01*
X9264345Y3131159D01*
X9270542Y3131820D01*
X9274911Y3133953D01*
X9277756Y3137763D01*
X9279280Y3143402D01*
X9281109Y3149092D01*
X9284360Y3153460D01*
X9288627Y3156458D01*
X9293250Y3157982D01*
X9297822Y3157982D01*
X9301734Y3156305D01*
X9304426Y3152902D01*
X9307271Y3139795D01*
X9312198Y3134258D01*
X9319615Y3131515D01*
X9328759Y3132074D01*
X9330842Y3132988D01*
X9332315Y3134817D01*
X9333128Y3137865D01*
X9333280Y3142488D01*
X9332722Y3148990D01*
X9331553Y3157626D01*
X9327083Y3182772D01*
X9314129Y3252063D01*
X9311589Y3263138D01*
X9308185Y3269284D01*
X9302343Y3271926D01*
X9292590Y3272485D01*
G37*
G36*
X9191345Y3272485D02*
G01*
X9173108Y3272180D01*
X9167317Y3271570D01*
X9163354Y3270554D01*
X9160814Y3268878D01*
X9159443Y3266490D01*
X9158833Y3263188D01*
X9158732Y3258870D01*
X9159341Y3251708D01*
X9161983Y3247644D01*
X9167723Y3245764D01*
X9187738Y3244850D01*
X9193530Y3242970D01*
X9196120Y3238855D01*
X9196781Y3231692D01*
X9196171Y3224987D01*
X9194038Y3220821D01*
X9189872Y3218688D01*
X9176207Y3217519D01*
X9172092Y3215132D01*
X9170111Y3210153D01*
X9169603Y3201822D01*
X9170111Y3193440D01*
X9172092Y3188512D01*
X9176207Y3186125D01*
X9183166Y3185515D01*
X9187434Y3185363D01*
X9190634Y3184855D01*
X9193072Y3183585D01*
X9194749Y3181451D01*
X9195816Y3178098D01*
X9196425Y3173272D01*
X9196730Y3166770D01*
X9196832Y3149904D01*
X9197136Y3143402D01*
X9197746Y3138576D01*
X9198813Y3135223D01*
X9200489Y3133090D01*
X9202877Y3131820D01*
X9206128Y3131312D01*
X9223959Y3131159D01*
X9223959Y3272485D01*
G37*
G36*
X9009583Y3272485D02*
G01*
X8994343Y3271977D01*
X8988653Y3271265D01*
X8984030Y3270148D01*
X8980220Y3268573D01*
X8976969Y3266490D01*
X8974175Y3263747D01*
X8971534Y3260394D01*
X8969298Y3256432D01*
X8967368Y3251606D01*
X8965844Y3246069D01*
X8964625Y3240074D01*
X8964179Y3236620D01*
X8990838Y3236620D01*
X8991955Y3242005D01*
X8995156Y3244596D01*
X9000794Y3245307D01*
X9006433Y3244494D01*
X9009837Y3241598D01*
X9011513Y3235655D01*
X9011970Y3225850D01*
X9011564Y3216351D01*
X9010091Y3210712D01*
X9007195Y3208223D01*
X9002471Y3208274D01*
X8998254Y3210153D01*
X8994952Y3214065D01*
X8992616Y3219907D01*
X8991244Y3227679D01*
X8990838Y3236620D01*
X8964179Y3236620D01*
X8963355Y3227374D01*
X8963253Y3221075D01*
X8963558Y3215081D01*
X8964269Y3209594D01*
X8965387Y3204819D01*
X8966962Y3200958D01*
X8970060Y3196386D01*
X8970822Y3193796D01*
X8971229Y3190544D01*
X8971229Y3186582D01*
X8970924Y3182010D01*
X8969197Y3171342D01*
X8966149Y3159048D01*
X8961882Y3145536D01*
X8959291Y3138525D01*
X8958529Y3134614D01*
X8960053Y3132378D01*
X8964320Y3131616D01*
X8971686Y3132074D01*
X8979814Y3133852D01*
X8985453Y3137560D01*
X8989568Y3144367D01*
X8995410Y3162401D01*
X8997594Y3168243D01*
X8999778Y3172764D01*
X9001912Y3176066D01*
X9003944Y3178048D01*
X9005824Y3178759D01*
X9007551Y3178200D01*
X9009024Y3176320D01*
X9010294Y3173222D01*
X9011208Y3168802D01*
X9011767Y3163062D01*
X9012326Y3142488D01*
X9014104Y3135020D01*
X9018168Y3131820D01*
X9025585Y3131159D01*
X9039148Y3131159D01*
X9039148Y3272485D01*
G37*
G36*
X8834475Y3272485D02*
G01*
X8830818Y3272332D01*
X8827820Y3271824D01*
X8825484Y3270859D01*
X8823858Y3269284D01*
X8822893Y3267100D01*
X8822639Y3264103D01*
X8822994Y3260191D01*
X8824112Y3255264D01*
X8825890Y3249269D01*
X8828328Y3242056D01*
X8839301Y3212642D01*
X8842654Y3201517D01*
X8845296Y3190443D01*
X8847277Y3179673D01*
X8848547Y3169462D01*
X8848953Y3160014D01*
X8849258Y3144062D01*
X8849868Y3138932D01*
X8850934Y3135426D01*
X8852611Y3133140D01*
X8854998Y3131870D01*
X8858300Y3131312D01*
X8862517Y3131159D01*
X8866784Y3131312D01*
X8870035Y3131870D01*
X8872474Y3133140D01*
X8874150Y3135426D01*
X8875217Y3139033D01*
X8875776Y3144215D01*
X8876080Y3151225D01*
X8876233Y3165043D01*
X8877096Y3175050D01*
X8878722Y3185871D01*
X8881059Y3197199D01*
X8884056Y3208731D01*
X8887714Y3220161D01*
X8897315Y3246780D01*
X8900972Y3258007D01*
X8903004Y3265373D01*
X8903309Y3267151D01*
X8902242Y3269234D01*
X8899448Y3270910D01*
X8895283Y3272028D01*
X8890152Y3272485D01*
X8883294Y3271469D01*
X8878062Y3267913D01*
X8873642Y3260852D01*
X8869172Y3249371D01*
X8861348Y3226257D01*
X8854287Y3249371D01*
X8850223Y3260801D01*
X8846108Y3267862D01*
X8841130Y3271469D01*
G37*
G36*
X8767419Y3272485D02*
G01*
X8767419Y3131159D01*
X8794597Y3131159D01*
X8794597Y3272485D01*
G37*
G36*
X8729573Y3272485D02*
G01*
X8727135Y3272383D01*
X8725103Y3271977D01*
X8723426Y3271113D01*
X8722055Y3269640D01*
X8720988Y3267354D01*
X8720124Y3264103D01*
X8719515Y3259785D01*
X8718753Y3247136D01*
X8718550Y3228086D01*
X8718499Y3158998D01*
X8698128Y3157321D01*
X8687917Y3155950D01*
X8681415Y3153511D01*
X8677706Y3149396D01*
X8675979Y3143097D01*
X8675522Y3139135D01*
X8675674Y3136138D01*
X8676792Y3133953D01*
X8679230Y3132582D01*
X8683244Y3131820D01*
X8689289Y3131566D01*
X8708593Y3132226D01*
X8742984Y3133902D01*
X8744712Y3204514D01*
X8744864Y3235452D01*
X8744661Y3247999D01*
X8744254Y3257651D01*
X8743696Y3263798D01*
X8743340Y3265322D01*
X8741410Y3268116D01*
X8738158Y3270351D01*
X8734044Y3271926D01*
G37*
G36*
X8623706Y3272485D02*
G01*
X8616543Y3272332D01*
X8610092Y3271926D01*
X8604402Y3271215D01*
X8599373Y3270046D01*
X8595004Y3268472D01*
X8591194Y3266338D01*
X8587994Y3263595D01*
X8585301Y3260191D01*
X8583066Y3256076D01*
X8581237Y3251200D01*
X8579866Y3245459D01*
X8578799Y3238804D01*
X8578037Y3231184D01*
X8577529Y3222498D01*
X8577224Y3201822D01*
X8604402Y3201822D01*
X8604656Y3225444D01*
X8605215Y3233064D01*
X8606078Y3238500D01*
X8607450Y3242056D01*
X8609330Y3244088D01*
X8611920Y3245053D01*
X8615273Y3245307D01*
X8618575Y3245053D01*
X8621166Y3244088D01*
X8623046Y3242056D01*
X8624417Y3238500D01*
X8625332Y3233064D01*
X8625840Y3225444D01*
X8626094Y3201822D01*
X8625840Y3178200D01*
X8625332Y3170529D01*
X8624417Y3165144D01*
X8623046Y3161588D01*
X8621166Y3159506D01*
X8618575Y3158591D01*
X8615273Y3158337D01*
X8611920Y3158591D01*
X8609330Y3159506D01*
X8607450Y3161588D01*
X8606078Y3165144D01*
X8605215Y3170529D01*
X8604656Y3178200D01*
X8604402Y3201822D01*
X8577224Y3201822D01*
X8577529Y3181146D01*
X8578037Y3172460D01*
X8578799Y3164840D01*
X8579866Y3158185D01*
X8581237Y3152444D01*
X8583066Y3147568D01*
X8585301Y3143453D01*
X8587994Y3140049D01*
X8591194Y3137306D01*
X8595004Y3135172D01*
X8599373Y3133547D01*
X8604402Y3132429D01*
X8610092Y3131667D01*
X8616543Y3131261D01*
X8653272Y3131159D01*
X8653272Y3272485D01*
G37*
G36*
X8539327Y3272485D02*
G01*
X8536889Y3272383D01*
X8534857Y3271926D01*
X8533180Y3270910D01*
X8531809Y3269132D01*
X8530691Y3266338D01*
X8529878Y3262376D01*
X8529269Y3256991D01*
X8528812Y3249980D01*
X8528354Y3230219D01*
X8528304Y3185210D01*
X8528507Y3160623D01*
X8528761Y3151733D01*
X8529218Y3144824D01*
X8529878Y3139694D01*
X8530742Y3136036D01*
X8531961Y3133648D01*
X8533485Y3132328D01*
X8535416Y3131769D01*
X8540546Y3132124D01*
X8545525Y3133293D01*
X8547404Y3134410D01*
X8548979Y3136188D01*
X8550249Y3138728D01*
X8551265Y3142284D01*
X8552078Y3147060D01*
X8553196Y3161080D01*
X8553958Y3182264D01*
X8554669Y3220770D01*
X8554466Y3247999D01*
X8554059Y3257651D01*
X8553450Y3263798D01*
X8553094Y3265322D01*
X8551164Y3268116D01*
X8547912Y3270351D01*
X8543848Y3271926D01*
G37*
G36*
X8465820Y3272485D02*
G01*
X8446668Y3272129D01*
X8440470Y3271621D01*
X8436051Y3270656D01*
X8433155Y3269234D01*
X8431479Y3267252D01*
X8430666Y3264560D01*
X8430463Y3261106D01*
X8430869Y3257956D01*
X8431987Y3253282D01*
X8436051Y3240379D01*
X8442096Y3224225D01*
X8466988Y3165348D01*
X8468512Y3161131D01*
X8467140Y3160166D01*
X8463330Y3159150D01*
X8457692Y3158134D01*
X8450834Y3157321D01*
X8442299Y3155899D01*
X8436559Y3153359D01*
X8433155Y3149346D01*
X8431428Y3143402D01*
X8431022Y3139541D01*
X8431276Y3136595D01*
X8432546Y3134410D01*
X8435086Y3132937D01*
X8439353Y3131972D01*
X8445550Y3131464D01*
X8465413Y3131159D01*
X8485327Y3131464D01*
X8491626Y3132023D01*
X8495995Y3132988D01*
X8498789Y3134614D01*
X8500313Y3136849D01*
X8500973Y3139998D01*
X8501126Y3144062D01*
X8500719Y3147517D01*
X8499602Y3152394D01*
X8497874Y3158439D01*
X8492693Y3173222D01*
X8485936Y3190087D01*
X8471458Y3222447D01*
X8466328Y3234385D01*
X8463076Y3242868D01*
X8464600Y3243834D01*
X8468664Y3244596D01*
X8474710Y3245104D01*
X8492083Y3245764D01*
X8497874Y3247644D01*
X8500516Y3251708D01*
X8501126Y3258870D01*
X8501024Y3263239D01*
X8500414Y3266541D01*
X8498941Y3268929D01*
X8496249Y3270605D01*
X8491931Y3271621D01*
X8485682Y3272180D01*
G37*
G36*
X9117990Y3044190D02*
G01*
X9109405Y3043732D01*
X9103461Y3042259D01*
X9100058Y3039719D01*
X9098940Y3036062D01*
X9099397Y3032861D01*
X9100566Y3030270D01*
X9102293Y3028543D01*
X9104376Y3027883D01*
X9106509Y3026664D01*
X9108236Y3023209D01*
X9109405Y3018129D01*
X9110268Y3005429D01*
X9111437Y2999638D01*
X9113164Y2995117D01*
X9115247Y2992577D01*
X9117482Y2992577D01*
X9119158Y2995371D01*
X9120276Y3000603D01*
X9121241Y3016046D01*
X9122867Y3022549D01*
X9125407Y3027273D01*
X9128861Y3029864D01*
X9132011Y3031540D01*
X9134602Y3033725D01*
X9136329Y3036163D01*
X9136989Y3038602D01*
X9135465Y3040786D01*
X9131401Y3042564D01*
X9125356Y3043783D01*
G37*
G36*
X8957665Y3044190D02*
G01*
X8955532Y3043326D01*
X8953804Y3040989D01*
X8952636Y3037535D01*
X8951823Y3027730D01*
X8950299Y3025394D01*
X8946896Y3025952D01*
X8934958Y3032353D01*
X8930436Y3032912D01*
X8926423Y3030677D01*
X8922004Y3025495D01*
X8917584Y3019907D01*
X8915247Y3018434D01*
X8914333Y3021380D01*
X8914180Y3029102D01*
X8913672Y3035604D01*
X8912047Y3039770D01*
X8909100Y3041751D01*
X8904630Y3041853D01*
X8900109Y3040075D01*
X8897162Y3035960D01*
X8895588Y3028797D01*
X8895130Y3017875D01*
X8895423Y3011576D01*
X8930487Y3011576D01*
X8930894Y3013710D01*
X8932062Y3015437D01*
X8933789Y3016605D01*
X8935923Y3017012D01*
X8938006Y3016605D01*
X8939733Y3015437D01*
X8940901Y3013710D01*
X8941358Y3011576D01*
X8973972Y3011576D01*
X8974582Y3013710D01*
X8976360Y3015437D01*
X8978950Y3016605D01*
X8982100Y3017012D01*
X8985250Y3016605D01*
X8987840Y3015437D01*
X8989618Y3013710D01*
X8990228Y3011576D01*
X8989618Y3009493D01*
X8987840Y3007766D01*
X8985250Y3006598D01*
X8982100Y3006140D01*
X8978950Y3006598D01*
X8976360Y3007766D01*
X8974582Y3009493D01*
X8973972Y3011576D01*
X8941358Y3011576D01*
X8940901Y3009493D01*
X8939733Y3007766D01*
X8938006Y3006598D01*
X8935923Y3006140D01*
X8933789Y3006598D01*
X8932062Y3007766D01*
X8930894Y3009493D01*
X8930487Y3011576D01*
X8895423Y3011576D01*
X8895537Y3009138D01*
X8896604Y3002076D01*
X8898178Y2997352D01*
X8900109Y2995777D01*
X8902395Y2995269D01*
X8904986Y2993593D01*
X8907576Y2990951D01*
X8909862Y2987649D01*
X8914739Y2981553D01*
X8919667Y2979267D01*
X8923477Y2980791D01*
X8925052Y2986227D01*
X8925306Y2988818D01*
X8926322Y2990850D01*
X8928201Y2992475D01*
X8931198Y2993644D01*
X8935466Y2994456D01*
X8941155Y2995015D01*
X8957665Y2995371D01*
X8991346Y2995472D01*
X9002471Y2995676D01*
X9006382Y2996590D01*
X9009380Y2998774D01*
X9011310Y3002178D01*
X9012428Y3010611D01*
X9013596Y3013913D01*
X9015323Y3016199D01*
X9017406Y3017012D01*
X9019540Y3016199D01*
X9021267Y3013862D01*
X9022384Y3010509D01*
X9033713Y3010509D01*
X9034272Y3018282D01*
X9035846Y3021888D01*
X9038488Y3021279D01*
X9042196Y3016554D01*
X9043111Y3013811D01*
X9042958Y3010611D01*
X9041841Y3007410D01*
X9039758Y3004616D01*
X9036964Y3002432D01*
X9035084Y3002584D01*
X9034068Y3005277D01*
X9033713Y3010509D01*
X9022384Y3010509D01*
X9023400Y3001924D01*
X9024874Y2998368D01*
X9027007Y2995879D01*
X9029649Y2994863D01*
X9048445Y2993034D01*
X9053372Y2993186D01*
X9057843Y2994456D01*
X9061399Y2996742D01*
X9063532Y2999790D01*
X9065412Y3003448D01*
X9067444Y3004413D01*
X9070187Y3002534D01*
X9078163Y2992729D01*
X9081719Y2990697D01*
X9085427Y2991459D01*
X9090202Y2994812D01*
X9093758Y2998520D01*
X9096248Y3002737D01*
X9097670Y3007207D01*
X9098127Y3011779D01*
X9097721Y3016300D01*
X9096451Y3020517D01*
X9094470Y3024327D01*
X9091828Y3027527D01*
X9088577Y3029864D01*
X9084767Y3031286D01*
X9080500Y3031490D01*
X9072270Y3029813D01*
X9068917Y3030829D01*
X9066072Y3033318D01*
X9063939Y3037078D01*
X9061704Y3042158D01*
X9059722Y3043936D01*
X9057284Y3042615D01*
X9053677Y3038195D01*
X9049613Y3034385D01*
X9044025Y3032048D01*
X9036659Y3031083D01*
X9019286Y3031845D01*
X9012123Y3031236D01*
X9006738Y3029864D01*
X9003741Y3027730D01*
X9001658Y3025546D01*
X8999067Y3024936D01*
X8995867Y3026003D01*
X8987637Y3031642D01*
X8983472Y3032658D01*
X8978950Y3031744D01*
X8968079Y3025902D01*
X8964930Y3025444D01*
X8963456Y3027832D01*
X8962644Y3037535D01*
X8961475Y3040989D01*
X8959748Y3043326D01*
G37*
G36*
X8848953Y3044190D02*
G01*
X8846820Y3043275D01*
X8845092Y3040837D01*
X8843924Y3037128D01*
X8843162Y3027578D01*
X8841994Y3024936D01*
X8839911Y3024632D01*
X8831986Y3029254D01*
X8826246Y3030829D01*
X8819845Y3031286D01*
X8813292Y3030728D01*
X8806891Y3029254D01*
X8801150Y3026867D01*
X8796477Y3023666D01*
X8793175Y3019755D01*
X8789822Y3014065D01*
X8787688Y3012135D01*
X8785961Y3013964D01*
X8783828Y3019501D01*
X8780983Y3024225D01*
X8776106Y3027527D01*
X8768791Y3029610D01*
X8749588Y3031236D01*
X8741308Y3032353D01*
X8734704Y3033776D01*
X8730538Y3035300D01*
X8727592Y3035706D01*
X8724646Y3033420D01*
X8721801Y3028594D01*
X8719210Y3021279D01*
X8716418Y3011576D01*
X8745677Y3011576D01*
X8746134Y3013710D01*
X8747302Y3015437D01*
X8749030Y3016605D01*
X8751112Y3017012D01*
X8753246Y3016605D01*
X8754973Y3015437D01*
X8756142Y3013710D01*
X8756548Y3011576D01*
X8756142Y3009493D01*
X8754973Y3007766D01*
X8753246Y3006598D01*
X8751112Y3006140D01*
X8749030Y3006598D01*
X8747302Y3007766D01*
X8746134Y3009493D01*
X8745677Y3011576D01*
X8716418Y3011576D01*
X8714079Y3003448D01*
X8713571Y3021126D01*
X8712962Y3027984D01*
X8711641Y3033572D01*
X8709812Y3037382D01*
X8707628Y3038754D01*
X8704072Y3038246D01*
X8701938Y3035198D01*
X8700516Y3027476D01*
X8698788Y3007156D01*
X8698738Y3002788D01*
X8699347Y2999689D01*
X8700820Y2997606D01*
X8703462Y2996387D01*
X8707424Y2995828D01*
X8712962Y2995726D01*
X8729573Y2996082D01*
X8737904Y2996031D01*
X8744508Y2995726D01*
X8757056Y2994304D01*
X8763000Y2996387D01*
X8766403Y3001619D01*
X8767521Y3010255D01*
X8767927Y3017621D01*
X8769299Y3019094D01*
X8772499Y3014116D01*
X8778138Y3002076D01*
X8782608Y2993136D01*
X8786977Y2985770D01*
X8790736Y2980791D01*
X8793429Y2978962D01*
X8798814Y2980182D01*
X8802014Y2983280D01*
X8802624Y2987548D01*
X8798560Y2995371D01*
X8797950Y2998876D01*
X8798509Y3002584D01*
X8800236Y3006344D01*
X8802878Y3010154D01*
X8804402Y3011271D01*
X8805164Y3009747D01*
X8805367Y3005429D01*
X8805567Y3004718D01*
X8817305Y3004718D01*
X8817559Y3007156D01*
X8821064Y3012440D01*
X8826144Y3015640D01*
X8830665Y3015945D01*
X8832646Y3012643D01*
X8831986Y3010306D01*
X8830106Y3007918D01*
X8827363Y3005734D01*
X8824061Y3004007D01*
X8820607Y3003092D01*
X8818321Y3003346D01*
X8817305Y3004718D01*
X8805567Y3004718D01*
X8806383Y3001822D01*
X8808923Y2998520D01*
X8812733Y2995777D01*
X8817254Y2993694D01*
X8822131Y2992424D01*
X8826906Y2992120D01*
X8831224Y2992983D01*
X8837015Y2996692D01*
X8840165Y2997606D01*
X8843619Y2997758D01*
X8849918Y2996488D01*
X8852306Y2997352D01*
X8853830Y2999536D01*
X8855049Y3006242D01*
X8856776Y3009036D01*
X8859367Y3010916D01*
X8862517Y3011576D01*
X8865717Y3010966D01*
X8868308Y3009188D01*
X8870035Y3006598D01*
X8871102Y3000298D01*
X8872270Y2997708D01*
X8873998Y2995930D01*
X8876131Y2995269D01*
X8878214Y2997200D01*
X8879941Y3002483D01*
X8881110Y3010255D01*
X8881567Y3019755D01*
X8881110Y3029254D01*
X8879941Y3037027D01*
X8878214Y3042259D01*
X8876131Y3044190D01*
X8873998Y3043326D01*
X8872270Y3040989D01*
X8871102Y3037535D01*
X8870035Y3029102D01*
X8868308Y3025648D01*
X8865717Y3023311D01*
X8862517Y3022447D01*
X8859367Y3023311D01*
X8856776Y3025648D01*
X8854998Y3029102D01*
X8853932Y3037535D01*
X8852763Y3040989D01*
X8851036Y3043326D01*
G37*
G36*
X8668918Y3030880D02*
G01*
X8664448Y3030524D01*
X8661450Y3029712D01*
X8659825Y3028086D01*
X8659520Y3025546D01*
X8660434Y3021787D01*
X8662466Y3016707D01*
X8665514Y3010001D01*
X8669477Y3003092D01*
X8673744Y2998317D01*
X8678062Y2995676D01*
X8682126Y2995066D01*
X8685784Y2996539D01*
X8688679Y3000044D01*
X8690610Y3005531D01*
X8691321Y3012948D01*
X8690864Y3022447D01*
X8688730Y3027832D01*
X8683802Y3030220D01*
X8675014Y3030880D01*
G37*
M02*
