G04 Layer: BottomSolderMaskLayer*
G04 EasyEDA v6.5.1, 2022-03-19 16:14:10*
G04 3ebca1db3f2944888bc2407653f8670d,b39d96d8288a45daa3b91a2d81ef2d09,10*
G04 Gerber Generator version 0.2*
G04 Scale: 100 percent, Rotated: No, Reflected: No *
G04 Dimensions in millimeters *
G04 leading zeros omitted , absolute positions ,4 integer and 5 decimal *
%FSLAX45Y45*%
%MOMM*%

%ADD30C,2.7432*%
%ADD31C,1.9016*%
%ADD32C,1.2954*%
%ADD33C,1.7272*%
%ADD34C,1.8032*%
%ADD35C,2.2032*%
%ADD36C,1.9812*%
%ADD37C,1.7526*%
%ADD40C,2.4232*%
%ADD42C,2.0032*%

%LPD*%
D30*
X9283700Y5473700D02*
G01*
X9283700Y5346700D01*
X9791700Y2857500D02*
G01*
X9664700Y2857500D01*
D31*
X6538493Y5311007D02*
G01*
X6538493Y5231008D01*
X6796506Y5310017D02*
G01*
X6796506Y5230017D01*
D32*
G01*
X1524000Y4813300D03*
G01*
X1524000Y5067300D03*
G01*
X2044700Y4813300D03*
G01*
X2044700Y5067300D03*
G01*
X2540000Y4800600D03*
G01*
X2540000Y5054600D03*
G01*
X3022600Y5321300D03*
G01*
X3022600Y5575300D03*
G01*
X3822700Y5334000D03*
G01*
X3822700Y5588000D03*
G01*
X4305300Y5372100D03*
G01*
X4559300Y5372100D03*
G01*
X3302000Y4559300D03*
G01*
X3302000Y4813300D03*
G01*
X3822700Y4559300D03*
G01*
X3822700Y4813300D03*
G01*
X4191000Y4343400D03*
G01*
X4445000Y4343400D03*
G01*
X1270000Y1765300D03*
G01*
X1270000Y2019300D03*
G01*
X1778000Y1739900D03*
G01*
X1778000Y1993900D03*
G01*
X2273300Y1765300D03*
G01*
X2273300Y2019300D03*
G01*
X2781300Y1765300D03*
G01*
X2781300Y2019300D03*
G01*
X3276600Y1765300D03*
G01*
X3276600Y2019300D03*
G01*
X3810000Y1778000D03*
G01*
X3810000Y2032000D03*
G01*
X3429000Y622300D03*
G01*
X3175000Y622300D03*
G01*
X5600700Y5067300D03*
G01*
X5600700Y5321300D03*
G01*
X7645400Y5067300D03*
G01*
X7645400Y5321300D03*
G01*
X2171700Y647700D03*
G01*
X2425700Y647700D03*
G01*
X4800600Y-50800D03*
G01*
X5054600Y-50800D03*
G01*
X4800600Y482600D03*
G01*
X5054600Y482600D03*
G01*
X4876800Y965200D03*
G01*
X4876800Y1219200D03*
G01*
X7378700Y482600D03*
G01*
X7378700Y736600D03*
D33*
G01*
X8204200Y5245100D03*
G01*
X8458200Y5245100D03*
D34*
G01*
X7023100Y2346705D03*
G01*
X7023100Y1996694D03*
G01*
X7566406Y3860800D03*
G01*
X7216393Y3860800D03*
G01*
X9623806Y939800D03*
G01*
X9273793Y939800D03*
D33*
G01*
X6134100Y1714500D03*
G01*
X6134100Y2374900D03*
D35*
G01*
X3187700Y1117600D03*
G01*
X4102100Y1117600D03*
D36*
G01*
X1066800Y1130300D03*
G01*
X2590800Y1130300D03*
D37*
G01*
X9499600Y4279900D03*
G01*
X9499600Y4025900D03*
G36*
X9654540Y5209539D02*
G01*
X9654540Y5610860D01*
X9928859Y5610860D01*
X9928859Y5209539D01*
G37*
G36*
X9527540Y2212339D02*
G01*
X9527540Y2486660D01*
X9928859Y2486660D01*
X9928859Y2212339D01*
G37*
D40*
G01*
X5334000Y2273300D03*
G01*
X5118100Y2019300D03*
G01*
X5334000Y1765300D03*
D36*
G01*
X5105400Y2781300D03*
G01*
X5105400Y3797300D03*
G01*
X5613400Y2768600D03*
G01*
X5613400Y3784600D03*
G01*
X6121400Y2794000D03*
G01*
X6121400Y3810000D03*
G01*
X6362700Y0D03*
G01*
X6362700Y1016000D03*
G01*
X6845300Y12700D03*
G01*
X6845300Y1028700D03*
G01*
X3213100Y241300D03*
G01*
X2197100Y241300D03*
G01*
X5867400Y1003300D03*
G01*
X5867400Y-12700D03*
G01*
X7835900Y749300D03*
G01*
X8851900Y749300D03*
G01*
X7886700Y4572000D03*
G01*
X8902700Y4572000D03*
D33*
G01*
X1003300Y-203200D03*
G01*
X1511300Y-203200D03*
G01*
X2019300Y-203200D03*
G01*
X3073400Y-279400D03*
G01*
X3581400Y-279400D03*
G01*
X4089400Y-279400D03*
D35*
G01*
X2311400Y2794000D03*
G01*
X2565400Y2794000D03*
G01*
X2819400Y2794000D03*
G01*
X3073400Y2794000D03*
G01*
X3327400Y2794000D03*
G01*
X3581400Y2794000D03*
G01*
X3835400Y2794000D03*
G01*
X4089400Y2794000D03*
G01*
X4343400Y2794000D03*
G01*
X4343400Y3556000D03*
G01*
X4089400Y3556000D03*
G01*
X3835400Y3556000D03*
G01*
X3581400Y3556000D03*
G01*
X3327400Y3556000D03*
G01*
X3073400Y3556000D03*
G01*
X2819400Y3556000D03*
G01*
X2565400Y3556000D03*
G01*
X2311400Y3556000D03*
G36*
X7659624Y1626107D02*
G01*
X7659624Y1826513D01*
X7859775Y1826513D01*
X7859775Y1626107D01*
G37*
D42*
G01*
X8013700Y1726260D03*
G01*
X8267700Y1726260D03*
G01*
X8521700Y1726260D03*
G01*
X8521700Y2540000D03*
G01*
X8267700Y2540000D03*
G01*
X8013700Y2540000D03*
G01*
X7759700Y2540000D03*
G36*
X6189472Y5135879D02*
G01*
X6189472Y5406136D01*
X6379463Y5406136D01*
X6379463Y5135879D01*
G37*
D33*
G01*
X3276600Y5689600D03*
M02*
