G04 Layer: TopSilkscreenLayer*
G04 EasyEDA v6.5.1, 2022-03-19 16:14:10*
G04 3ebca1db3f2944888bc2407653f8670d,b39d96d8288a45daa3b91a2d81ef2d09,10*
G04 Gerber Generator version 0.2*
G04 Scale: 100 percent, Rotated: No, Reflected: No *
G04 Dimensions in millimeters *
G04 leading zeros omitted , absolute positions ,4 integer and 5 decimal *
%FSLAX45Y45*%
%MOMM*%

%ADD10C,0.2540*%
%ADD25C,0.2007*%
%ADD26C,0.3000*%
%ADD27C,0.4000*%
%ADD28C,0.2032*%
%ADD29C,0.1524*%

%LPD*%
G36*
X8571890Y4125366D02*
G01*
X8559190Y4125163D01*
X8546541Y4124706D01*
X8534044Y4123842D01*
X8521852Y4122724D01*
X8509965Y4121200D01*
X8498535Y4119422D01*
X8487613Y4117289D01*
X8477250Y4114800D01*
X8465616Y4111548D01*
X8454136Y4107992D01*
X8442858Y4104132D01*
X8431733Y4099915D01*
X8420760Y4095394D01*
X8409990Y4090568D01*
X8399424Y4085386D01*
X8388959Y4079900D01*
X8373956Y4071213D01*
X8583930Y4071213D01*
X8583930Y3978808D01*
X8551316Y3978808D01*
X8551316Y4071213D01*
X8373956Y4071213D01*
X8358581Y4061409D01*
X8348776Y4054551D01*
X8339175Y4047439D01*
X8329675Y4039920D01*
X8320328Y4032097D01*
X8311134Y4023918D01*
X8302040Y4015435D01*
X8293150Y4006545D01*
X8284565Y3997553D01*
X8276285Y3988155D01*
X8268258Y3978503D01*
X8255676Y3962044D01*
X8318500Y3962044D01*
X8319008Y3965498D01*
X8320938Y3968800D01*
X8324138Y3972306D01*
X8326678Y3974642D01*
X8329117Y3976420D01*
X8331606Y3977538D01*
X8334146Y3977944D01*
X8336889Y3977640D01*
X8339937Y3976522D01*
X8343392Y3974592D01*
X8347354Y3971747D01*
X8357260Y3963162D01*
X8370417Y3950462D01*
X8378037Y3942740D01*
X8384438Y3935679D01*
X8389670Y3929329D01*
X8393332Y3924249D01*
X8743797Y3924249D01*
X8745118Y3927754D01*
X8748115Y3932224D01*
X8752890Y3937914D01*
X8768689Y3954373D01*
X8775903Y3961536D01*
X8782456Y3967632D01*
X8788349Y3972712D01*
X8793683Y3976776D01*
X8798509Y3979875D01*
X8802878Y3982059D01*
X8806840Y3983278D01*
X8810447Y3983583D01*
X8813800Y3983024D01*
X8816949Y3981653D01*
X8819946Y3979418D01*
X8822842Y3976370D01*
X8824417Y3973880D01*
X8825077Y3971290D01*
X8824671Y3968292D01*
X8823198Y3964736D01*
X8820454Y3960418D01*
X8816390Y3955186D01*
X8810904Y3948836D01*
X8796832Y3933850D01*
X8790381Y3927500D01*
X8784437Y3922166D01*
X8779052Y3917848D01*
X8774074Y3914444D01*
X8769502Y3912006D01*
X8765286Y3910431D01*
X8761425Y3909822D01*
X8757767Y3910025D01*
X8754313Y3911142D01*
X8751062Y3913022D01*
X8747912Y3915765D01*
X8745372Y3918610D01*
X8743950Y3921302D01*
X8743797Y3924249D01*
X8393332Y3924249D01*
X8396579Y3918712D01*
X8398256Y3914444D01*
X8398764Y3910837D01*
X8398052Y3907891D01*
X8396224Y3905656D01*
X8393176Y3904030D01*
X8388959Y3903065D01*
X8383574Y3902710D01*
X8379256Y3903065D01*
X8374938Y3904081D01*
X8370519Y3905961D01*
X8365896Y3908653D01*
X8360918Y3912311D01*
X8355482Y3916934D01*
X8349488Y3922725D01*
X8333790Y3939387D01*
X8327034Y3947160D01*
X8322360Y3953256D01*
X8319566Y3958082D01*
X8318500Y3962044D01*
X8255676Y3962044D01*
X8249462Y3953205D01*
X8242452Y3942587D01*
X8235797Y3931767D01*
X8229447Y3920693D01*
X8223402Y3909466D01*
X8217712Y3897985D01*
X8212378Y3886352D01*
X8207400Y3874515D01*
X8202828Y3862578D01*
X8199018Y3851656D01*
X8195919Y3841445D01*
X8193176Y3830574D01*
X8190687Y3819144D01*
X8188502Y3807256D01*
X8186623Y3794963D01*
X8185048Y3782314D01*
X8183778Y3769461D01*
X8182762Y3756456D01*
X8182152Y3743350D01*
X8181779Y3727907D01*
X8225231Y3727907D01*
X8225332Y3731615D01*
X8225840Y3734765D01*
X8226755Y3737406D01*
X8228279Y3739591D01*
X8230514Y3741267D01*
X8233613Y3742588D01*
X8237677Y3743502D01*
X8242808Y3744112D01*
X8249107Y3744417D01*
X8265922Y3744315D01*
X8290153Y3743401D01*
X8300618Y3742791D01*
X8308441Y3741978D01*
X8313978Y3740810D01*
X8317687Y3739134D01*
X8319973Y3736949D01*
X8321294Y3733952D01*
X8321716Y3731869D01*
X8377631Y3731869D01*
X8378139Y3745433D01*
X8379409Y3758742D01*
X8381339Y3771696D01*
X8383930Y3783939D01*
X8387283Y3795318D01*
X8389162Y3800652D01*
X8393480Y3810355D01*
X8400135Y3822598D01*
X8406942Y3833876D01*
X8414004Y3844290D01*
X8421370Y3853840D01*
X8429142Y3862628D01*
X8437372Y3870756D01*
X8446109Y3878224D01*
X8455456Y3885133D01*
X8465464Y3891534D01*
X8476234Y3897528D01*
X8487867Y3903116D01*
X8500364Y3908450D01*
X8505444Y3910329D01*
X8510778Y3912006D01*
X8522258Y3914800D01*
X8534552Y3916781D01*
X8547506Y3918051D01*
X8560866Y3918559D01*
X8574481Y3918305D01*
X8588146Y3917289D01*
X8601659Y3915562D01*
X8614816Y3913174D01*
X8627465Y3910025D01*
X8639403Y3906164D01*
X8650376Y3901643D01*
X8655913Y3898950D01*
X8666683Y3892854D01*
X8677148Y3885895D01*
X8687206Y3878072D01*
X8696858Y3869537D01*
X8706053Y3860190D01*
X8714689Y3850182D01*
X8722766Y3839514D01*
X8730234Y3828287D01*
X8737092Y3816451D01*
X8743238Y3804158D01*
X8748014Y3793083D01*
X8751316Y3782568D01*
X8752484Y3777132D01*
X8753449Y3771341D01*
X8754110Y3765042D01*
X8754872Y3750310D01*
X8755107Y3727907D01*
X8812174Y3727907D01*
X8812276Y3731615D01*
X8812784Y3734765D01*
X8813698Y3737406D01*
X8815273Y3739591D01*
X8817508Y3741267D01*
X8820556Y3742588D01*
X8824620Y3743502D01*
X8829751Y3744112D01*
X8836101Y3744417D01*
X8852865Y3744315D01*
X8877096Y3743401D01*
X8887561Y3742791D01*
X8895384Y3741978D01*
X8900922Y3740810D01*
X8904630Y3739134D01*
X8906967Y3736949D01*
X8908288Y3733952D01*
X8908999Y3730193D01*
X8909405Y3726230D01*
X8909050Y3723233D01*
X8907373Y3721049D01*
X8903868Y3719576D01*
X8898026Y3718661D01*
X8889390Y3718204D01*
X8861450Y3717950D01*
X8835136Y3718255D01*
X8826449Y3718763D01*
X8820251Y3719576D01*
X8816136Y3720846D01*
X8813647Y3722573D01*
X8812479Y3724910D01*
X8812174Y3727907D01*
X8755107Y3727907D01*
X8754872Y3713073D01*
X8754110Y3698341D01*
X8752535Y3686048D01*
X8751366Y3680510D01*
X8749944Y3675126D01*
X8746185Y3664305D01*
X8740952Y3652469D01*
X8735009Y3640531D01*
X8728811Y3629558D01*
X8722207Y3619449D01*
X8715197Y3610101D01*
X8707628Y3601465D01*
X8699449Y3593388D01*
X8690559Y3585870D01*
X8680907Y3578707D01*
X8670340Y3571900D01*
X8658809Y3565296D01*
X8647785Y3559403D01*
X8638438Y3554882D01*
X8630005Y3551631D01*
X8625789Y3550361D01*
X8618372Y3548837D01*
X8736076Y3548837D01*
X8736584Y3551732D01*
X8737803Y3554323D01*
X8739682Y3556711D01*
X8742070Y3558590D01*
X8744661Y3559810D01*
X8747506Y3560267D01*
X8750706Y3560064D01*
X8754211Y3559098D01*
X8758072Y3557371D01*
X8762339Y3554933D01*
X8766962Y3551682D01*
X8772042Y3547668D01*
X8777630Y3542842D01*
X8790178Y3530752D01*
X8798509Y3522167D01*
X8804960Y3515156D01*
X8809736Y3509518D01*
X8812834Y3504946D01*
X8814562Y3501237D01*
X8814917Y3498087D01*
X8814155Y3495344D01*
X8812377Y3492703D01*
X8809634Y3489706D01*
X8806891Y3487420D01*
X8804046Y3485896D01*
X8801049Y3485083D01*
X8797848Y3485134D01*
X8794343Y3485946D01*
X8790482Y3487623D01*
X8786164Y3490163D01*
X8781338Y3493617D01*
X8775903Y3497935D01*
X8763000Y3509467D01*
X8757158Y3515106D01*
X8752027Y3520440D01*
X8747607Y3525418D01*
X8743899Y3530092D01*
X8740902Y3534410D01*
X8738666Y3538474D01*
X8737092Y3542182D01*
X8736228Y3545636D01*
X8736076Y3548837D01*
X8618372Y3548837D01*
X8611870Y3547922D01*
X8600287Y3547160D01*
X8585860Y3546805D01*
X8558072Y3546754D01*
X8542020Y3546957D01*
X8529167Y3547516D01*
X8518702Y3548532D01*
X8514029Y3549294D01*
X8509660Y3550259D01*
X8501278Y3552850D01*
X8492642Y3556457D01*
X8482838Y3561232D01*
X8471204Y3567429D01*
X8459470Y3574745D01*
X8448243Y3582822D01*
X8437676Y3591712D01*
X8427720Y3601212D01*
X8418525Y3611372D01*
X8410143Y3622040D01*
X8402624Y3633215D01*
X8399170Y3638956D01*
X8395970Y3644798D01*
X8390331Y3656736D01*
X8387892Y3662781D01*
X8384387Y3673754D01*
X8382863Y3679647D01*
X8380475Y3691940D01*
X8379510Y3698341D01*
X8378240Y3711549D01*
X8377834Y3718255D01*
X8377631Y3731869D01*
X8321716Y3731869D01*
X8322462Y3726230D01*
X8322106Y3723233D01*
X8320430Y3721049D01*
X8316925Y3719576D01*
X8311083Y3718661D01*
X8302447Y3718204D01*
X8274507Y3717950D01*
X8248142Y3718255D01*
X8239506Y3718763D01*
X8233308Y3719576D01*
X8229142Y3720846D01*
X8226704Y3722573D01*
X8225536Y3724910D01*
X8225231Y3727907D01*
X8181779Y3727907D01*
X8181797Y3717137D01*
X8182102Y3704183D01*
X8182711Y3691432D01*
X8183676Y3679037D01*
X8184997Y3666947D01*
X8186674Y3655314D01*
X8188655Y3644188D01*
X8191144Y3632911D01*
X8194243Y3621074D01*
X8197697Y3609390D01*
X8201609Y3597757D01*
X8205876Y3586327D01*
X8210499Y3574999D01*
X8215528Y3563772D01*
X8220913Y3552748D01*
X8226653Y3541877D01*
X8232749Y3531209D01*
X8239201Y3520694D01*
X8247345Y3508349D01*
X8334451Y3508349D01*
X8334806Y3511854D01*
X8336280Y3516020D01*
X8338870Y3520948D01*
X8342630Y3526536D01*
X8347506Y3532835D01*
X8353552Y3539896D01*
X8360765Y3547719D01*
X8367268Y3554374D01*
X8373414Y3560013D01*
X8379155Y3564686D01*
X8384489Y3568395D01*
X8389416Y3571087D01*
X8393938Y3572764D01*
X8398002Y3573475D01*
X8401710Y3573221D01*
X8404961Y3571951D01*
X8407806Y3569715D01*
X8410244Y3566464D01*
X8412276Y3562248D01*
X8412480Y3560013D01*
X8411718Y3557066D01*
X8410041Y3553358D01*
X8407552Y3549091D01*
X8404250Y3544265D01*
X8400237Y3538982D01*
X8395512Y3533343D01*
X8383524Y3520490D01*
X8377529Y3514750D01*
X8372094Y3510076D01*
X8367115Y3506470D01*
X8362492Y3503777D01*
X8358073Y3501948D01*
X8353806Y3500882D01*
X8349488Y3500577D01*
X8344204Y3500882D01*
X8340090Y3501796D01*
X8337092Y3503320D01*
X8335213Y3505504D01*
X8334451Y3508349D01*
X8247345Y3508349D01*
X8253018Y3500221D01*
X8260435Y3490315D01*
X8268106Y3480612D01*
X8276081Y3471113D01*
X8284362Y3461867D01*
X8292896Y3452876D01*
X8301736Y3444138D01*
X8311562Y3434994D01*
X8551316Y3434994D01*
X8551519Y3454552D01*
X8551875Y3462070D01*
X8552434Y3468217D01*
X8553246Y3473196D01*
X8554364Y3477006D01*
X8555888Y3479850D01*
X8557768Y3481832D01*
X8560054Y3483000D01*
X8562848Y3483559D01*
X8566200Y3483559D01*
X8570112Y3483101D01*
X8573465Y3482390D01*
X8576106Y3480968D01*
X8578138Y3478479D01*
X8579662Y3474618D01*
X8580780Y3468928D01*
X8581593Y3461054D01*
X8582761Y3437382D01*
X8583117Y3425190D01*
X8583168Y3415233D01*
X8582964Y3407359D01*
X8582355Y3401263D01*
X8581440Y3396691D01*
X8580069Y3393440D01*
X8578240Y3391306D01*
X8575954Y3389985D01*
X8571331Y3388461D01*
X8567318Y3387648D01*
X8563813Y3387699D01*
X8560816Y3388614D01*
X8558326Y3390493D01*
X8556244Y3393338D01*
X8554618Y3397250D01*
X8553297Y3402329D01*
X8552383Y3408578D01*
X8551773Y3416046D01*
X8551418Y3424834D01*
X8551316Y3434994D01*
X8311562Y3434994D01*
X8320125Y3427425D01*
X8329675Y3419449D01*
X8339480Y3411829D01*
X8349488Y3404463D01*
X8359749Y3397402D01*
X8370163Y3390646D01*
X8380780Y3384194D01*
X8391601Y3378098D01*
X8402624Y3372358D01*
X8413750Y3366973D01*
X8425078Y3361893D01*
X8436559Y3357219D01*
X8448192Y3352901D01*
X8459978Y3348990D01*
X8471814Y3345434D01*
X8483854Y3342284D01*
X8495690Y3339642D01*
X8507272Y3337407D01*
X8518906Y3335528D01*
X8530539Y3334054D01*
X8542172Y3332937D01*
X8553856Y3332175D01*
X8565489Y3331819D01*
X8577173Y3331819D01*
X8588857Y3332226D01*
X8600541Y3332987D01*
X8612225Y3334105D01*
X8623909Y3335629D01*
X8635593Y3337509D01*
X8647328Y3339744D01*
X8659012Y3342386D01*
X8670747Y3345383D01*
X8682431Y3348786D01*
X8694166Y3352546D01*
X8705850Y3356660D01*
X8717584Y3361131D01*
X8729268Y3366008D01*
X8741003Y3371291D01*
X8765133Y3383076D01*
X8775547Y3388766D01*
X8785098Y3394405D01*
X8794089Y3400399D01*
X8802878Y3406952D01*
X8811869Y3414318D01*
X8821470Y3422853D01*
X8831986Y3432810D01*
X8856573Y3457295D01*
X8867749Y3468776D01*
X8877452Y3479190D01*
X8885936Y3488740D01*
X8893352Y3497732D01*
X8899956Y3506470D01*
X8905900Y3515156D01*
X8911437Y3524097D01*
X8916822Y3533597D01*
X8922156Y3543909D01*
X8928252Y3556457D01*
X8934500Y3569919D01*
X8940038Y3582720D01*
X8944965Y3595014D01*
X8949283Y3606952D01*
X8953042Y3618687D01*
X8956243Y3630320D01*
X8958935Y3642055D01*
X8961170Y3653942D01*
X8962948Y3666134D01*
X8964320Y3678834D01*
X8965285Y3692093D01*
X8965895Y3706114D01*
X8966250Y3720998D01*
X8966149Y3745788D01*
X8965742Y3760927D01*
X8964980Y3774541D01*
X8963812Y3787089D01*
X8962237Y3798874D01*
X8960154Y3810304D01*
X8957564Y3821785D01*
X8954414Y3833723D01*
X8950756Y3845966D01*
X8946794Y3858006D01*
X8942425Y3869893D01*
X8937752Y3881577D01*
X8932722Y3893058D01*
X8927388Y3904335D01*
X8921750Y3915410D01*
X8915755Y3926281D01*
X8909456Y3936898D01*
X8902852Y3947312D01*
X8895994Y3957472D01*
X8888780Y3967429D01*
X8881313Y3977081D01*
X8873540Y3986529D01*
X8865514Y3995724D01*
X8857234Y4004665D01*
X8848648Y4013301D01*
X8839809Y4021734D01*
X8830716Y4029811D01*
X8821369Y4037685D01*
X8811818Y4045204D01*
X8801963Y4052468D01*
X8791905Y4059428D01*
X8781643Y4066082D01*
X8771128Y4072432D01*
X8760409Y4078478D01*
X8749487Y4084218D01*
X8738362Y4089603D01*
X8727033Y4094632D01*
X8715502Y4099407D01*
X8703767Y4103776D01*
X8691880Y4107840D01*
X8679789Y4111498D01*
X8667546Y4114850D01*
X8656929Y4117289D01*
X8645804Y4119422D01*
X8634222Y4121251D01*
X8622182Y4122724D01*
X8609888Y4123893D01*
X8597341Y4124706D01*
X8584692Y4125163D01*
G37*
G36*
X8566150Y3888638D02*
G01*
X8560358Y3888536D01*
X8548878Y3887622D01*
X8537092Y3885590D01*
X8531047Y3884168D01*
X8525103Y3882440D01*
X8513318Y3878173D01*
X8507526Y3875684D01*
X8496147Y3869893D01*
X8485225Y3863238D01*
X8479942Y3859580D01*
X8469680Y3851605D01*
X8460028Y3842816D01*
X8450986Y3833317D01*
X8442706Y3823157D01*
X8435187Y3812336D01*
X8431733Y3806748D01*
X8425484Y3795115D01*
X8421370Y3785768D01*
X8418169Y3776472D01*
X8415832Y3766820D01*
X8414258Y3756355D01*
X8413343Y3744772D01*
X8413038Y3731514D01*
X8413394Y3719677D01*
X8414562Y3708196D01*
X8416493Y3696970D01*
X8419185Y3686149D01*
X8422538Y3675634D01*
X8426551Y3665575D01*
X8431174Y3655872D01*
X8436457Y3646627D01*
X8442248Y3637787D01*
X8448598Y3629456D01*
X8455456Y3621582D01*
X8462822Y3614267D01*
X8470595Y3607409D01*
X8478774Y3601161D01*
X8487308Y3595420D01*
X8496198Y3590290D01*
X8505444Y3585768D01*
X8514892Y3581908D01*
X8524646Y3578656D01*
X8534603Y3576065D01*
X8544763Y3574135D01*
X8555075Y3572967D01*
X8560257Y3572611D01*
X8570722Y3572560D01*
X8581237Y3573170D01*
X8591804Y3574643D01*
X8602421Y3576828D01*
X8612987Y3579876D01*
X8623503Y3583787D01*
X8633917Y3588512D01*
X8644331Y3594150D01*
X8654338Y3600653D01*
X8663736Y3607714D01*
X8672372Y3615385D01*
X8680399Y3623564D01*
X8687663Y3632200D01*
X8694267Y3641293D01*
X8700211Y3650742D01*
X8705392Y3660546D01*
X8709863Y3670706D01*
X8713622Y3681069D01*
X8716619Y3691686D01*
X8718905Y3702405D01*
X8720429Y3713327D01*
X8721242Y3724300D01*
X8721293Y3735273D01*
X8720582Y3746296D01*
X8719108Y3757218D01*
X8716822Y3768039D01*
X8713774Y3778758D01*
X8711996Y3784041D01*
X8707780Y3794455D01*
X8702751Y3804615D01*
X8696960Y3814470D01*
X8690305Y3824020D01*
X8682888Y3833164D01*
X8678875Y3837584D01*
X8669985Y3846220D01*
X8660384Y3854348D01*
X8650274Y3861714D01*
X8639810Y3868165D01*
X8628989Y3873804D01*
X8617864Y3878579D01*
X8606586Y3882440D01*
X8595106Y3885387D01*
X8589365Y3886504D01*
X8577732Y3888028D01*
G37*
G36*
X8361070Y3158693D02*
G01*
X8361070Y3016859D01*
X8408060Y3016910D01*
X8416645Y3017164D01*
X8422894Y3017672D01*
X8427110Y3018637D01*
X8429650Y3020110D01*
X8430920Y3022295D01*
X8431174Y3025241D01*
X8430768Y3029102D01*
X8428990Y3035198D01*
X8425332Y3039211D01*
X8418779Y3041650D01*
X8398052Y3044342D01*
X8391855Y3046730D01*
X8388959Y3050997D01*
X8388248Y3057956D01*
X8388858Y3064459D01*
X8390991Y3068523D01*
X8395157Y3070606D01*
X8408822Y3071825D01*
X8412937Y3074212D01*
X8414918Y3079140D01*
X8415426Y3087522D01*
X8414918Y3095853D01*
X8412937Y3100832D01*
X8408822Y3103219D01*
X8395157Y3104388D01*
X8390991Y3106521D01*
X8388858Y3110585D01*
X8388248Y3117088D01*
X8388959Y3123996D01*
X8391855Y3128264D01*
X8398052Y3130702D01*
X8418677Y3133344D01*
X8424926Y3135579D01*
X8428126Y3139186D01*
X8429040Y3144570D01*
X8428786Y3147771D01*
X8427923Y3150362D01*
X8426145Y3152343D01*
X8423198Y3153867D01*
X8418880Y3154984D01*
X8412937Y3155848D01*
X8395055Y3157067D01*
G37*
G36*
X8097520Y3158185D02*
G01*
X8077606Y3157880D01*
X8071358Y3157321D01*
X8067040Y3156305D01*
X8064347Y3154629D01*
X8062874Y3152241D01*
X8062264Y3148939D01*
X8062163Y3144570D01*
X8062772Y3137408D01*
X8065414Y3133344D01*
X8071205Y3131464D01*
X8088579Y3130854D01*
X8094624Y3130397D01*
X8098688Y3129737D01*
X8100212Y3128975D01*
X8098688Y3124860D01*
X8088579Y3101543D01*
X8081213Y3085185D01*
X8073796Y3067913D01*
X8067751Y3051810D01*
X8065414Y3044698D01*
X8063687Y3038602D01*
X8062569Y3033674D01*
X8062163Y3030169D01*
X8062315Y3025902D01*
X8062925Y3022701D01*
X8064398Y3020364D01*
X8067141Y3018739D01*
X8071459Y3017723D01*
X8077708Y3017164D01*
X8097520Y3016859D01*
X8117382Y3017164D01*
X8123631Y3017723D01*
X8127949Y3018739D01*
X8130641Y3020415D01*
X8132114Y3022803D01*
X8132724Y3026105D01*
X8132825Y3030474D01*
X8132216Y3037586D01*
X8129574Y3041700D01*
X8123783Y3043580D01*
X8106409Y3044240D01*
X8100364Y3044748D01*
X8096300Y3045510D01*
X8094776Y3046425D01*
X8096300Y3050692D01*
X8106409Y3074212D01*
X8117636Y3099257D01*
X8124393Y3116122D01*
X8129574Y3130905D01*
X8131302Y3136950D01*
X8132419Y3141827D01*
X8132825Y3145282D01*
X8132673Y3149346D01*
X8132013Y3152444D01*
X8130489Y3154730D01*
X8127746Y3156305D01*
X8123428Y3157321D01*
X8117179Y3157880D01*
G37*
G36*
X8200034Y3158185D02*
G01*
X8190280Y3157626D01*
X8184438Y3154984D01*
X8181035Y3148838D01*
X8177936Y3134563D01*
X8168656Y3084931D01*
X8196072Y3084931D01*
X8196732Y3090214D01*
X8197900Y3095498D01*
X8199170Y3099816D01*
X8200390Y3102762D01*
X8201406Y3103829D01*
X8202218Y3102762D01*
X8202879Y3099816D01*
X8203285Y3095498D01*
X8203488Y3090214D01*
X8203082Y3084931D01*
X8202117Y3080613D01*
X8200593Y3077718D01*
X8198815Y3076651D01*
X8197189Y3077718D01*
X8196224Y3080613D01*
X8196072Y3084931D01*
X8168656Y3084931D01*
X8161070Y3043326D01*
X8159902Y3034690D01*
X8159394Y3028188D01*
X8159546Y3023565D01*
X8160359Y3020517D01*
X8161781Y3018688D01*
X8163915Y3017774D01*
X8173059Y3017215D01*
X8180425Y3019958D01*
X8185353Y3025495D01*
X8188198Y3038602D01*
X8190941Y3042005D01*
X8194802Y3043682D01*
X8199374Y3043682D01*
X8204047Y3042158D01*
X8208264Y3039160D01*
X8211566Y3034792D01*
X8214868Y3023463D01*
X8217712Y3019653D01*
X8222132Y3017520D01*
X8228330Y3016859D01*
X8233562Y3016859D01*
X8235645Y3017113D01*
X8237321Y3017621D01*
X8238642Y3018586D01*
X8239607Y3020060D01*
X8240217Y3022244D01*
X8240471Y3025241D01*
X8239861Y3034182D01*
X8237880Y3047847D01*
X8217814Y3158185D01*
G37*
G36*
X8268665Y3158185D02*
G01*
X8268665Y3016859D01*
X8286496Y3017012D01*
X8289747Y3017520D01*
X8292134Y3018790D01*
X8293811Y3020923D01*
X8294928Y3024276D01*
X8295538Y3029102D01*
X8296198Y3058972D01*
X8296808Y3063798D01*
X8297925Y3067151D01*
X8299602Y3069285D01*
X8301990Y3070555D01*
X8305241Y3071063D01*
X8309457Y3071215D01*
X8316417Y3071825D01*
X8320531Y3074212D01*
X8322513Y3079140D01*
X8323021Y3087522D01*
X8322513Y3095853D01*
X8320531Y3100832D01*
X8316417Y3103219D01*
X8302752Y3104388D01*
X8298586Y3106521D01*
X8296452Y3110687D01*
X8295843Y3117392D01*
X8296503Y3124555D01*
X8299145Y3128670D01*
X8304885Y3130550D01*
X8324900Y3131464D01*
X8330641Y3133344D01*
X8333282Y3137408D01*
X8333892Y3144570D01*
X8333790Y3148888D01*
X8333181Y3152190D01*
X8331809Y3154578D01*
X8329269Y3156254D01*
X8325307Y3157270D01*
X8319516Y3157880D01*
X8301278Y3158185D01*
G37*
G36*
X8453475Y3158185D02*
G01*
X8453475Y3111550D01*
X8480653Y3111550D01*
X8481110Y3121355D01*
X8482787Y3127298D01*
X8486190Y3130194D01*
X8491880Y3131007D01*
X8497519Y3130296D01*
X8500668Y3127705D01*
X8501786Y3122320D01*
X8501380Y3113379D01*
X8500008Y3105607D01*
X8497671Y3099765D01*
X8494420Y3095853D01*
X8490153Y3093974D01*
X8485479Y3093923D01*
X8482533Y3096412D01*
X8481060Y3102051D01*
X8480653Y3111550D01*
X8453475Y3111550D01*
X8453475Y3016859D01*
X8467039Y3016859D01*
X8474456Y3017520D01*
X8478570Y3020720D01*
X8480298Y3028188D01*
X8480856Y3048762D01*
X8481415Y3054502D01*
X8482380Y3058922D01*
X8483600Y3062020D01*
X8485073Y3063900D01*
X8486800Y3064459D01*
X8488680Y3063748D01*
X8490712Y3061766D01*
X8492845Y3058464D01*
X8495030Y3053943D01*
X8497214Y3048101D01*
X8503056Y3030067D01*
X8507171Y3023260D01*
X8512810Y3019552D01*
X8520938Y3017774D01*
X8528304Y3017316D01*
X8532571Y3018078D01*
X8534146Y3020314D01*
X8533333Y3024225D01*
X8528456Y3038094D01*
X8524798Y3051048D01*
X8523427Y3057042D01*
X8522411Y3062630D01*
X8521395Y3072282D01*
X8521395Y3076244D01*
X8521801Y3079496D01*
X8522563Y3082086D01*
X8525713Y3086658D01*
X8527237Y3090519D01*
X8528354Y3095294D01*
X8529066Y3100781D01*
X8529370Y3106775D01*
X8529320Y3113074D01*
X8528862Y3119475D01*
X8527999Y3125774D01*
X8526830Y3131769D01*
X8525256Y3137306D01*
X8523325Y3142132D01*
X8521090Y3146094D01*
X8518448Y3149447D01*
X8515654Y3152190D01*
X8512454Y3154273D01*
X8508593Y3155848D01*
X8503970Y3156966D01*
X8498332Y3157677D01*
X8483041Y3158185D01*
G37*
G36*
X8602472Y3158185D02*
G01*
X8597392Y3157728D01*
X8593175Y3156610D01*
X8590381Y3154934D01*
X8589365Y3152851D01*
X8589619Y3151073D01*
X8591651Y3143707D01*
X8595360Y3132480D01*
X8604961Y3105861D01*
X8608568Y3094431D01*
X8611565Y3082899D01*
X8613952Y3071571D01*
X8615578Y3060750D01*
X8616391Y3050743D01*
X8616848Y3029915D01*
X8617458Y3024733D01*
X8618524Y3021126D01*
X8620201Y3018840D01*
X8622588Y3017570D01*
X8625840Y3017012D01*
X8630107Y3016859D01*
X8634374Y3017012D01*
X8637625Y3017570D01*
X8640013Y3018840D01*
X8641689Y3021126D01*
X8642756Y3024632D01*
X8643366Y3029762D01*
X8643670Y3045714D01*
X8644128Y3055162D01*
X8645347Y3065373D01*
X8647328Y3076143D01*
X8650020Y3087217D01*
X8653322Y3098342D01*
X8664295Y3127756D01*
X8666734Y3134969D01*
X8668512Y3140964D01*
X8669629Y3145891D01*
X8670036Y3149803D01*
X8669731Y3152800D01*
X8668766Y3154984D01*
X8667140Y3156559D01*
X8664803Y3157524D01*
X8661806Y3158032D01*
X8658148Y3158185D01*
X8651544Y3157169D01*
X8646515Y3153562D01*
X8642400Y3146501D01*
X8638336Y3135071D01*
X8631275Y3111957D01*
X8623452Y3135071D01*
X8618982Y3146552D01*
X8614562Y3153613D01*
X8609330Y3157169D01*
G37*
G36*
X8698026Y3158185D02*
G01*
X8698026Y3016859D01*
X8725204Y3016859D01*
X8725204Y3158185D01*
G37*
G36*
X8763101Y3158185D02*
G01*
X8758580Y3157626D01*
X8754465Y3156051D01*
X8751265Y3153816D01*
X8749334Y3151022D01*
X8748623Y3146907D01*
X8747810Y3127756D01*
X8747810Y3098495D01*
X8749690Y3019602D01*
X8795054Y3017469D01*
X8803386Y3017266D01*
X8809380Y3017520D01*
X8813444Y3018282D01*
X8815832Y3019653D01*
X8816949Y3021838D01*
X8817102Y3024835D01*
X8816644Y3028797D01*
X8814917Y3035096D01*
X8811260Y3039211D01*
X8804757Y3041650D01*
X8794496Y3043021D01*
X8774125Y3044698D01*
X8774023Y3124200D01*
X8773566Y3139897D01*
X8773109Y3145485D01*
X8772499Y3149803D01*
X8771636Y3153054D01*
X8770569Y3155340D01*
X8769197Y3156813D01*
X8767521Y3157677D01*
X8765489Y3158083D01*
G37*
G36*
X8839352Y3158185D02*
G01*
X8839352Y3087522D01*
X8866530Y3087522D01*
X8866835Y3111144D01*
X8867343Y3118764D01*
X8868206Y3124200D01*
X8869578Y3127756D01*
X8871508Y3129788D01*
X8874048Y3130753D01*
X8877401Y3131007D01*
X8880703Y3130753D01*
X8883294Y3129788D01*
X8885224Y3127756D01*
X8886545Y3124200D01*
X8887460Y3118764D01*
X8887968Y3111144D01*
X8888272Y3087522D01*
X8887968Y3063900D01*
X8887460Y3056229D01*
X8886545Y3050844D01*
X8885224Y3047288D01*
X8883294Y3045206D01*
X8880703Y3044291D01*
X8877401Y3044037D01*
X8874048Y3044291D01*
X8871508Y3045206D01*
X8869578Y3047288D01*
X8868206Y3050844D01*
X8867343Y3056229D01*
X8866835Y3063900D01*
X8866530Y3087522D01*
X8839352Y3087522D01*
X8839352Y3016859D01*
X8876131Y3016961D01*
X8882532Y3017367D01*
X8888222Y3018129D01*
X8893251Y3019247D01*
X8897620Y3020872D01*
X8901430Y3023006D01*
X8904630Y3025749D01*
X8907373Y3029153D01*
X8909608Y3033268D01*
X8911386Y3038144D01*
X8912809Y3043885D01*
X8913876Y3050540D01*
X8914587Y3058160D01*
X8915095Y3066846D01*
X8915450Y3087522D01*
X8915095Y3108198D01*
X8914587Y3116884D01*
X8913876Y3124504D01*
X8912809Y3131159D01*
X8911386Y3136900D01*
X8909608Y3141776D01*
X8907373Y3145891D01*
X8904630Y3149295D01*
X8901430Y3152038D01*
X8897620Y3154172D01*
X8893251Y3155746D01*
X8888222Y3156915D01*
X8882532Y3157626D01*
X8876131Y3158032D01*
G37*
G36*
X8953296Y3158185D02*
G01*
X8948775Y3157626D01*
X8944711Y3156051D01*
X8941460Y3153816D01*
X8939530Y3151022D01*
X8938869Y3146907D01*
X8938361Y3138932D01*
X8938056Y3127756D01*
X8937955Y3106470D01*
X8938717Y3067964D01*
X8939479Y3046780D01*
X8939936Y3038957D01*
X8940596Y3032760D01*
X8941358Y3027984D01*
X8942374Y3024428D01*
X8943644Y3021888D01*
X8945219Y3020110D01*
X8947099Y3018993D01*
X8952128Y3017824D01*
X8957259Y3017469D01*
X8959138Y3018028D01*
X8960662Y3019348D01*
X8961882Y3021736D01*
X8962796Y3025394D01*
X8963456Y3030524D01*
X8964117Y3046323D01*
X8964320Y3070910D01*
X8964269Y3115919D01*
X8963812Y3135680D01*
X8963406Y3142691D01*
X8962796Y3148076D01*
X8961932Y3152038D01*
X8960866Y3154832D01*
X8959494Y3156610D01*
X8957767Y3157626D01*
X8955735Y3158083D01*
G37*
G36*
X9026855Y3158185D02*
G01*
X9006941Y3157880D01*
X9000693Y3157321D01*
X8996426Y3156305D01*
X8993733Y3154629D01*
X8992260Y3152241D01*
X8991650Y3148939D01*
X8991498Y3144570D01*
X8992158Y3137408D01*
X8994800Y3133344D01*
X9000540Y3131464D01*
X9017914Y3130804D01*
X9023959Y3130296D01*
X9028074Y3129534D01*
X9029547Y3128568D01*
X9028074Y3124352D01*
X9017914Y3100832D01*
X9010548Y3084423D01*
X9003131Y3067202D01*
X8997086Y3051149D01*
X8993022Y3038094D01*
X8991904Y3033217D01*
X8991498Y3029762D01*
X8991650Y3025698D01*
X8992311Y3022549D01*
X8993835Y3020314D01*
X8996629Y3018688D01*
X9000998Y3017723D01*
X9007297Y3017164D01*
X9027210Y3016859D01*
X9047073Y3017164D01*
X9053322Y3017672D01*
X9057538Y3018637D01*
X9060129Y3020110D01*
X9061348Y3022295D01*
X9061602Y3025241D01*
X9061196Y3029102D01*
X9059519Y3035046D01*
X9056065Y3039059D01*
X9050324Y3041599D01*
X9041790Y3043021D01*
X9034932Y3043834D01*
X9029293Y3044850D01*
X9025534Y3045866D01*
X9024112Y3046831D01*
X9029700Y3061055D01*
X9043162Y3092196D01*
X9050528Y3109925D01*
X9056573Y3126079D01*
X9060688Y3138982D01*
X9061805Y3143656D01*
X9062161Y3146806D01*
X9061958Y3150260D01*
X9061196Y3152952D01*
X9059468Y3154934D01*
X9056573Y3156356D01*
X9052153Y3157321D01*
X9045956Y3157829D01*
G37*
G36*
X8374684Y2929890D02*
G01*
X8367268Y2929483D01*
X8361222Y2928264D01*
X8357158Y2926486D01*
X8355634Y2924302D01*
X8356295Y2921863D01*
X8358022Y2919425D01*
X8360613Y2917240D01*
X8363813Y2915564D01*
X8367217Y2912973D01*
X8369757Y2908249D01*
X8371382Y2901746D01*
X8372348Y2886303D01*
X8373465Y2881071D01*
X8375192Y2878277D01*
X8377377Y2878277D01*
X8379510Y2880817D01*
X8381238Y2885338D01*
X8382406Y2891129D01*
X8383270Y2903829D01*
X8384438Y2908909D01*
X8386165Y2912364D01*
X8388248Y2913583D01*
X8390382Y2914243D01*
X8392109Y2915970D01*
X8393277Y2918561D01*
X8393684Y2921762D01*
X8392566Y2925419D01*
X8389162Y2927959D01*
X8383270Y2929432D01*
G37*
G36*
X8535009Y2929890D02*
G01*
X8532876Y2929026D01*
X8531148Y2926689D01*
X8529980Y2923235D01*
X8529218Y2913532D01*
X8527694Y2911144D01*
X8524544Y2911602D01*
X8513673Y2917444D01*
X8509203Y2918358D01*
X8505037Y2917342D01*
X8496757Y2911703D01*
X8493556Y2910636D01*
X8490966Y2911246D01*
X8488883Y2913430D01*
X8485936Y2915564D01*
X8480501Y2916936D01*
X8473389Y2917545D01*
X8456015Y2916783D01*
X8448598Y2917748D01*
X8443010Y2920085D01*
X8438946Y2923895D01*
X8435390Y2928315D01*
X8432952Y2929636D01*
X8430920Y2927858D01*
X8428685Y2922778D01*
X8426551Y2919018D01*
X8423706Y2916529D01*
X8420354Y2915513D01*
X8412124Y2917190D01*
X8407857Y2916986D01*
X8404098Y2915564D01*
X8400796Y2913227D01*
X8398154Y2910027D01*
X8396173Y2906217D01*
X8394903Y2902000D01*
X8394679Y2899511D01*
X8449513Y2899511D01*
X8450478Y2902254D01*
X8454136Y2906979D01*
X8456777Y2907588D01*
X8458403Y2903982D01*
X8458911Y2896209D01*
X8458606Y2890977D01*
X8457539Y2888284D01*
X8455660Y2888132D01*
X8452866Y2890316D01*
X8450783Y2893110D01*
X8449665Y2896311D01*
X8449513Y2899511D01*
X8394679Y2899511D01*
X8394496Y2897479D01*
X8394954Y2892907D01*
X8396376Y2888437D01*
X8398865Y2884220D01*
X8402421Y2880512D01*
X8407196Y2877159D01*
X8410956Y2876397D01*
X8414461Y2878429D01*
X8422487Y2888234D01*
X8425180Y2890113D01*
X8427212Y2889148D01*
X8429091Y2885490D01*
X8431225Y2882442D01*
X8434781Y2880156D01*
X8439302Y2878886D01*
X8444179Y2878734D01*
X8462975Y2880563D01*
X8465616Y2881579D01*
X8467801Y2884068D01*
X8469223Y2887624D01*
X8470188Y2896057D01*
X8471357Y2899562D01*
X8473084Y2901899D01*
X8475218Y2902712D01*
X8477300Y2901899D01*
X8479028Y2899613D01*
X8479854Y2897276D01*
X8502396Y2897276D01*
X8503005Y2899410D01*
X8504783Y2901137D01*
X8507374Y2902305D01*
X8510524Y2902712D01*
X8513724Y2902305D01*
X8516315Y2901137D01*
X8518042Y2899410D01*
X8518702Y2897276D01*
X8551316Y2897276D01*
X8551722Y2899410D01*
X8552891Y2901137D01*
X8554618Y2902305D01*
X8556752Y2902712D01*
X8558834Y2902305D01*
X8560562Y2901137D01*
X8561730Y2899410D01*
X8562187Y2897276D01*
X8561730Y2895193D01*
X8560562Y2893466D01*
X8558834Y2892298D01*
X8556752Y2891840D01*
X8554618Y2892298D01*
X8552891Y2893466D01*
X8551722Y2895193D01*
X8551316Y2897276D01*
X8518702Y2897276D01*
X8518042Y2895193D01*
X8516315Y2893466D01*
X8513724Y2892298D01*
X8510524Y2891840D01*
X8507374Y2892298D01*
X8504783Y2893466D01*
X8503005Y2895193D01*
X8502396Y2897276D01*
X8479854Y2897276D01*
X8480196Y2896311D01*
X8481314Y2887878D01*
X8483244Y2884474D01*
X8486292Y2882290D01*
X8490153Y2881376D01*
X8505799Y2881122D01*
X8544153Y2880969D01*
X8551519Y2880715D01*
X8557209Y2880156D01*
X8561425Y2879344D01*
X8564422Y2878175D01*
X8566302Y2876550D01*
X8567318Y2874518D01*
X8567623Y2871927D01*
X8569147Y2866491D01*
X8572957Y2864967D01*
X8577935Y2867253D01*
X8582761Y2873349D01*
X8585047Y2876651D01*
X8587638Y2879293D01*
X8590229Y2880969D01*
X8592566Y2881477D01*
X8594445Y2883052D01*
X8596020Y2887776D01*
X8597087Y2894838D01*
X8597493Y2903575D01*
X8597036Y2914497D01*
X8595461Y2921660D01*
X8592566Y2925775D01*
X8587994Y2927553D01*
X8583574Y2927451D01*
X8580628Y2925470D01*
X8579002Y2921304D01*
X8578494Y2914802D01*
X8578291Y2907080D01*
X8577376Y2904134D01*
X8575040Y2905607D01*
X8570671Y2911195D01*
X8566200Y2916377D01*
X8562238Y2918612D01*
X8557717Y2918053D01*
X8545728Y2911652D01*
X8542324Y2911094D01*
X8540800Y2913430D01*
X8539988Y2923235D01*
X8538819Y2926689D01*
X8537092Y2929026D01*
G37*
G36*
X8616492Y2929890D02*
G01*
X8614410Y2927959D01*
X8612682Y2922727D01*
X8611514Y2914954D01*
X8611108Y2905455D01*
X8611412Y2898343D01*
X8659977Y2898343D01*
X8661958Y2901645D01*
X8666530Y2901340D01*
X8671560Y2898140D01*
X8675065Y2892856D01*
X8675370Y2890418D01*
X8674303Y2889046D01*
X8672017Y2888792D01*
X8668613Y2889707D01*
X8665260Y2891434D01*
X8662517Y2893618D01*
X8660688Y2896006D01*
X8659977Y2898343D01*
X8611412Y2898343D01*
X8611514Y2895955D01*
X8612682Y2888183D01*
X8614410Y2882900D01*
X8616492Y2880969D01*
X8618626Y2881630D01*
X8620353Y2883408D01*
X8621522Y2885998D01*
X8622588Y2892298D01*
X8624366Y2894888D01*
X8626957Y2896666D01*
X8630107Y2897276D01*
X8633256Y2896616D01*
X8635847Y2894736D01*
X8637625Y2891942D01*
X8638794Y2885236D01*
X8640318Y2883052D01*
X8642705Y2882188D01*
X8649055Y2883458D01*
X8652459Y2883306D01*
X8655608Y2882392D01*
X8661450Y2878683D01*
X8665718Y2877820D01*
X8670544Y2878124D01*
X8675370Y2879394D01*
X8679942Y2881477D01*
X8683701Y2884220D01*
X8686292Y2887522D01*
X8687257Y2891129D01*
X8687460Y2895447D01*
X8688222Y2896971D01*
X8689797Y2895854D01*
X8692388Y2892044D01*
X8694115Y2888284D01*
X8694674Y2884576D01*
X8694115Y2881071D01*
X8692337Y2877972D01*
X8690000Y2873248D01*
X8690610Y2868980D01*
X8693810Y2865882D01*
X8699195Y2864662D01*
X8701887Y2866491D01*
X8705697Y2871470D01*
X8710015Y2878836D01*
X8714486Y2887776D01*
X8720124Y2899816D01*
X8723325Y2904794D01*
X8724747Y2903321D01*
X8725039Y2897276D01*
X8736076Y2897276D01*
X8736533Y2899410D01*
X8737701Y2901137D01*
X8739428Y2902305D01*
X8741511Y2902712D01*
X8743645Y2902305D01*
X8745372Y2901137D01*
X8746540Y2899410D01*
X8746947Y2897276D01*
X8746540Y2895193D01*
X8745372Y2893466D01*
X8743645Y2892298D01*
X8741511Y2891840D01*
X8739428Y2892298D01*
X8737701Y2893466D01*
X8736533Y2895193D01*
X8736076Y2897276D01*
X8725039Y2897276D01*
X8726220Y2887319D01*
X8729624Y2882087D01*
X8735568Y2880004D01*
X8748115Y2881426D01*
X8754719Y2881731D01*
X8779662Y2881426D01*
X8785199Y2881528D01*
X8789162Y2882087D01*
X8791803Y2883306D01*
X8793276Y2885389D01*
X8793886Y2888488D01*
X8793886Y2892856D01*
X8792108Y2913176D01*
X8790736Y2920898D01*
X8788603Y2923946D01*
X8784996Y2924454D01*
X8782862Y2923082D01*
X8781034Y2919272D01*
X8779713Y2913684D01*
X8779052Y2906826D01*
X8778595Y2889148D01*
X8773414Y2906979D01*
X8770823Y2914294D01*
X8767978Y2919120D01*
X8765032Y2921406D01*
X8762085Y2921000D01*
X8757970Y2919476D01*
X8751316Y2918053D01*
X8743035Y2916936D01*
X8723884Y2915310D01*
X8716518Y2913227D01*
X8711641Y2909925D01*
X8708847Y2905201D01*
X8706713Y2899664D01*
X8704935Y2897835D01*
X8702802Y2899765D01*
X8699449Y2905455D01*
X8696198Y2909366D01*
X8691473Y2912567D01*
X8685733Y2914954D01*
X8679383Y2916428D01*
X8672779Y2916986D01*
X8666429Y2916529D01*
X8660638Y2914954D01*
X8652764Y2910332D01*
X8650630Y2910636D01*
X8649462Y2913278D01*
X8648700Y2922828D01*
X8647531Y2926537D01*
X8645804Y2928975D01*
X8643670Y2929890D01*
X8641588Y2929026D01*
X8639860Y2926689D01*
X8638692Y2923235D01*
X8637625Y2914802D01*
X8635898Y2911348D01*
X8633307Y2909011D01*
X8630107Y2908147D01*
X8626906Y2909011D01*
X8624316Y2911348D01*
X8622588Y2914802D01*
X8621522Y2923235D01*
X8620353Y2926689D01*
X8618626Y2929026D01*
G37*
G36*
X8817610Y2916580D02*
G01*
X8808821Y2915920D01*
X8803944Y2913532D01*
X8801760Y2908147D01*
X8801303Y2898648D01*
X8802014Y2891231D01*
X8803944Y2885744D01*
X8806840Y2882239D01*
X8810498Y2880766D01*
X8814612Y2881376D01*
X8818880Y2884017D01*
X8823147Y2888792D01*
X8827109Y2895701D01*
X8830157Y2902407D01*
X8832189Y2907487D01*
X8833104Y2911246D01*
X8832799Y2913786D01*
X8831224Y2915412D01*
X8828176Y2916224D01*
X8823706Y2916580D01*
G37*
D28*
X8871458Y5701792D02*
G01*
X8871458Y5535676D01*
X8788400Y5618734D02*
G01*
X8954770Y5618734D01*
D29*
X1249171Y4995418D02*
G01*
X1238757Y4990084D01*
X1228344Y4979670D01*
X1223263Y4969510D01*
X1223263Y4948681D01*
X1228344Y4938268D01*
X1238757Y4927854D01*
X1249171Y4922520D01*
X1264920Y4917439D01*
X1290828Y4917439D01*
X1306321Y4922520D01*
X1316736Y4927854D01*
X1327150Y4938268D01*
X1332229Y4948681D01*
X1332229Y4969510D01*
X1327150Y4979670D01*
X1316736Y4990084D01*
X1306321Y4995418D01*
X1244092Y5029707D02*
G01*
X1238757Y5040121D01*
X1223263Y5055615D01*
X1332229Y5055615D01*
X1769871Y4995418D02*
G01*
X1759457Y4990084D01*
X1749044Y4979670D01*
X1743963Y4969510D01*
X1743963Y4948681D01*
X1749044Y4938268D01*
X1759457Y4927854D01*
X1769871Y4922520D01*
X1785620Y4917439D01*
X1811528Y4917439D01*
X1827021Y4922520D01*
X1837436Y4927854D01*
X1847850Y4938268D01*
X1852929Y4948681D01*
X1852929Y4969510D01*
X1847850Y4979670D01*
X1837436Y4990084D01*
X1827021Y4995418D01*
X1769871Y5034787D02*
G01*
X1764792Y5034787D01*
X1754378Y5040121D01*
X1749044Y5045202D01*
X1743963Y5055615D01*
X1743963Y5076444D01*
X1749044Y5086857D01*
X1754378Y5091937D01*
X1764792Y5097271D01*
X1775205Y5097271D01*
X1785620Y5091937D01*
X1801113Y5081523D01*
X1852929Y5029707D01*
X1852929Y5102352D01*
X2265172Y4982718D02*
G01*
X2254758Y4977384D01*
X2244343Y4966970D01*
X2239263Y4956810D01*
X2239263Y4935981D01*
X2244343Y4925568D01*
X2254758Y4915154D01*
X2265172Y4909820D01*
X2280920Y4904739D01*
X2306827Y4904739D01*
X2322322Y4909820D01*
X2332736Y4915154D01*
X2343150Y4925568D01*
X2348229Y4935981D01*
X2348229Y4956810D01*
X2343150Y4966970D01*
X2332736Y4977384D01*
X2322322Y4982718D01*
X2239263Y5027421D02*
G01*
X2239263Y5084571D01*
X2280920Y5053329D01*
X2280920Y5068823D01*
X2286000Y5079237D01*
X2291079Y5084571D01*
X2306827Y5089652D01*
X2317241Y5089652D01*
X2332736Y5084571D01*
X2343150Y5074157D01*
X2348229Y5058410D01*
X2348229Y5042915D01*
X2343150Y5027421D01*
X2338070Y5022087D01*
X2327656Y5017007D01*
X2747772Y5503418D02*
G01*
X2737358Y5498084D01*
X2726943Y5487670D01*
X2721863Y5477510D01*
X2721863Y5456681D01*
X2726943Y5446268D01*
X2737358Y5435854D01*
X2747772Y5430520D01*
X2763520Y5425439D01*
X2789427Y5425439D01*
X2804922Y5430520D01*
X2815336Y5435854D01*
X2825750Y5446268D01*
X2830829Y5456681D01*
X2830829Y5477510D01*
X2825750Y5487670D01*
X2815336Y5498084D01*
X2804922Y5503418D01*
X2721863Y5589523D02*
G01*
X2794508Y5537707D01*
X2794508Y5615686D01*
X2721863Y5589523D02*
G01*
X2830829Y5589523D01*
X3547872Y5516118D02*
G01*
X3537458Y5510784D01*
X3527043Y5500370D01*
X3521963Y5490210D01*
X3521963Y5469381D01*
X3527043Y5458968D01*
X3537458Y5448554D01*
X3547872Y5443220D01*
X3563620Y5438139D01*
X3589527Y5438139D01*
X3605022Y5443220D01*
X3615436Y5448554D01*
X3625850Y5458968D01*
X3630929Y5469381D01*
X3630929Y5490210D01*
X3625850Y5500370D01*
X3615436Y5510784D01*
X3605022Y5516118D01*
X3521963Y5612637D02*
G01*
X3521963Y5560821D01*
X3568700Y5555487D01*
X3563620Y5560821D01*
X3558286Y5576315D01*
X3558286Y5591810D01*
X3563620Y5607557D01*
X3573779Y5617971D01*
X3589527Y5623052D01*
X3599941Y5623052D01*
X3615436Y5617971D01*
X3625850Y5607557D01*
X3630929Y5591810D01*
X3630929Y5576315D01*
X3625850Y5560821D01*
X3620770Y5555487D01*
X3610356Y5550407D01*
X4487418Y5646928D02*
G01*
X4482084Y5657342D01*
X4471670Y5667755D01*
X4461509Y5672836D01*
X4440681Y5672836D01*
X4430268Y5667755D01*
X4419854Y5657342D01*
X4414520Y5646928D01*
X4409440Y5631179D01*
X4409440Y5605271D01*
X4414520Y5589778D01*
X4419854Y5579363D01*
X4430268Y5568950D01*
X4440681Y5563870D01*
X4461509Y5563870D01*
X4471670Y5568950D01*
X4482084Y5579363D01*
X4487418Y5589778D01*
X4583938Y5657342D02*
G01*
X4578858Y5667755D01*
X4563109Y5672836D01*
X4552950Y5672836D01*
X4537202Y5667755D01*
X4526788Y5652007D01*
X4521708Y5626100D01*
X4521708Y5600192D01*
X4526788Y5579363D01*
X4537202Y5568950D01*
X4552950Y5563870D01*
X4558029Y5563870D01*
X4573524Y5568950D01*
X4583938Y5579363D01*
X4589272Y5594857D01*
X4589272Y5600192D01*
X4583938Y5615686D01*
X4573524Y5626100D01*
X4558029Y5631179D01*
X4552950Y5631179D01*
X4537202Y5626100D01*
X4526788Y5615686D01*
X4521708Y5600192D01*
X3027172Y4741418D02*
G01*
X3016758Y4736084D01*
X3006343Y4725670D01*
X3001263Y4715510D01*
X3001263Y4694681D01*
X3006343Y4684268D01*
X3016758Y4673854D01*
X3027172Y4668520D01*
X3042920Y4663439D01*
X3068827Y4663439D01*
X3084322Y4668520D01*
X3094736Y4673854D01*
X3105150Y4684268D01*
X3110229Y4694681D01*
X3110229Y4715510D01*
X3105150Y4725670D01*
X3094736Y4736084D01*
X3084322Y4741418D01*
X3001263Y4848352D02*
G01*
X3110229Y4796536D01*
X3001263Y4775707D02*
G01*
X3001263Y4848352D01*
X3547872Y4741418D02*
G01*
X3537458Y4736084D01*
X3527043Y4725670D01*
X3521963Y4715510D01*
X3521963Y4694681D01*
X3527043Y4684268D01*
X3537458Y4673854D01*
X3547872Y4668520D01*
X3563620Y4663439D01*
X3589527Y4663439D01*
X3605022Y4668520D01*
X3615436Y4673854D01*
X3625850Y4684268D01*
X3630929Y4694681D01*
X3630929Y4715510D01*
X3625850Y4725670D01*
X3615436Y4736084D01*
X3605022Y4741418D01*
X3521963Y4801615D02*
G01*
X3527043Y4786121D01*
X3537458Y4780787D01*
X3547872Y4780787D01*
X3558286Y4786121D01*
X3563620Y4796536D01*
X3568700Y4817110D01*
X3573779Y4832857D01*
X3584193Y4843271D01*
X3594608Y4848352D01*
X3610356Y4848352D01*
X3620770Y4843271D01*
X3625850Y4837937D01*
X3630929Y4822444D01*
X3630929Y4801615D01*
X3625850Y4786121D01*
X3620770Y4780787D01*
X3610356Y4775707D01*
X3594608Y4775707D01*
X3584193Y4780787D01*
X3573779Y4791202D01*
X3568700Y4806950D01*
X3563620Y4827523D01*
X3558286Y4837937D01*
X3547872Y4843271D01*
X3537458Y4843271D01*
X3527043Y4837937D01*
X3521963Y4822444D01*
X3521963Y4801615D01*
X4373118Y4618228D02*
G01*
X4367784Y4628642D01*
X4357370Y4639055D01*
X4347209Y4644136D01*
X4326381Y4644136D01*
X4315968Y4639055D01*
X4305554Y4628642D01*
X4300220Y4618228D01*
X4295140Y4602479D01*
X4295140Y4576571D01*
X4300220Y4561078D01*
X4305554Y4550663D01*
X4315968Y4540250D01*
X4326381Y4535170D01*
X4347209Y4535170D01*
X4357370Y4540250D01*
X4367784Y4550663D01*
X4373118Y4561078D01*
X4474972Y4607813D02*
G01*
X4469638Y4592320D01*
X4459224Y4581905D01*
X4443729Y4576571D01*
X4438650Y4576571D01*
X4422902Y4581905D01*
X4412488Y4592320D01*
X4407408Y4607813D01*
X4407408Y4612894D01*
X4412488Y4628642D01*
X4422902Y4639055D01*
X4438650Y4644136D01*
X4443729Y4644136D01*
X4459224Y4639055D01*
X4469638Y4628642D01*
X4474972Y4607813D01*
X4474972Y4581905D01*
X4469638Y4555744D01*
X4459224Y4540250D01*
X4443729Y4535170D01*
X4433315Y4535170D01*
X4417822Y4540250D01*
X4412488Y4550663D01*
X995171Y1947418D02*
G01*
X984757Y1942084D01*
X974344Y1931670D01*
X969263Y1921510D01*
X969263Y1900681D01*
X974344Y1890268D01*
X984757Y1879854D01*
X995171Y1874520D01*
X1010920Y1869439D01*
X1036828Y1869439D01*
X1052321Y1874520D01*
X1062736Y1879854D01*
X1073150Y1890268D01*
X1078229Y1900681D01*
X1078229Y1921510D01*
X1073150Y1931670D01*
X1062736Y1942084D01*
X1052321Y1947418D01*
X990092Y1981707D02*
G01*
X984757Y1992121D01*
X969263Y2007615D01*
X1078229Y2007615D01*
X969263Y2073147D02*
G01*
X974344Y2057400D01*
X990092Y2047239D01*
X1016000Y2041905D01*
X1031494Y2041905D01*
X1057655Y2047239D01*
X1073150Y2057400D01*
X1078229Y2073147D01*
X1078229Y2083562D01*
X1073150Y2099055D01*
X1057655Y2109470D01*
X1031494Y2114550D01*
X1016000Y2114550D01*
X990092Y2109470D01*
X974344Y2099055D01*
X969263Y2083562D01*
X969263Y2073147D01*
X1503171Y1922018D02*
G01*
X1492757Y1916684D01*
X1482344Y1906270D01*
X1477263Y1896110D01*
X1477263Y1875281D01*
X1482344Y1864868D01*
X1492757Y1854454D01*
X1503171Y1849120D01*
X1518920Y1844039D01*
X1544828Y1844039D01*
X1560321Y1849120D01*
X1570736Y1854454D01*
X1581150Y1864868D01*
X1586229Y1875281D01*
X1586229Y1896110D01*
X1581150Y1906270D01*
X1570736Y1916684D01*
X1560321Y1922018D01*
X1498092Y1956307D02*
G01*
X1492757Y1966721D01*
X1477263Y1982215D01*
X1586229Y1982215D01*
X1498092Y2016505D02*
G01*
X1492757Y2026920D01*
X1477263Y2042413D01*
X1586229Y2042413D01*
X1998472Y1947418D02*
G01*
X1988058Y1942084D01*
X1977643Y1931670D01*
X1972563Y1921510D01*
X1972563Y1900681D01*
X1977643Y1890268D01*
X1988058Y1879854D01*
X1998472Y1874520D01*
X2014220Y1869439D01*
X2040127Y1869439D01*
X2055622Y1874520D01*
X2066036Y1879854D01*
X2076450Y1890268D01*
X2081529Y1900681D01*
X2081529Y1921510D01*
X2076450Y1931670D01*
X2066036Y1942084D01*
X2055622Y1947418D01*
X1993391Y1981707D02*
G01*
X1988058Y1992121D01*
X1972563Y2007615D01*
X2081529Y2007615D01*
X1998472Y2047239D02*
G01*
X1993391Y2047239D01*
X1982977Y2052320D01*
X1977643Y2057400D01*
X1972563Y2067813D01*
X1972563Y2088642D01*
X1977643Y2099055D01*
X1982977Y2104389D01*
X1993391Y2109470D01*
X2003806Y2109470D01*
X2014220Y2104389D01*
X2029713Y2093976D01*
X2081529Y2041905D01*
X2081529Y2114550D01*
X2506472Y1947418D02*
G01*
X2496058Y1942084D01*
X2485643Y1931670D01*
X2480563Y1921510D01*
X2480563Y1900681D01*
X2485643Y1890268D01*
X2496058Y1879854D01*
X2506472Y1874520D01*
X2522220Y1869439D01*
X2548127Y1869439D01*
X2563622Y1874520D01*
X2574036Y1879854D01*
X2584450Y1890268D01*
X2589529Y1900681D01*
X2589529Y1921510D01*
X2584450Y1931670D01*
X2574036Y1942084D01*
X2563622Y1947418D01*
X2501391Y1981707D02*
G01*
X2496058Y1992121D01*
X2480563Y2007615D01*
X2589529Y2007615D01*
X2480563Y2052320D02*
G01*
X2480563Y2109470D01*
X2522220Y2078228D01*
X2522220Y2093976D01*
X2527300Y2104389D01*
X2532379Y2109470D01*
X2548127Y2114550D01*
X2558541Y2114550D01*
X2574036Y2109470D01*
X2584450Y2099055D01*
X2589529Y2083562D01*
X2589529Y2067813D01*
X2584450Y2052320D01*
X2579370Y2047239D01*
X2568956Y2041905D01*
X3001772Y1947418D02*
G01*
X2991358Y1942084D01*
X2980943Y1931670D01*
X2975863Y1921510D01*
X2975863Y1900681D01*
X2980943Y1890268D01*
X2991358Y1879854D01*
X3001772Y1874520D01*
X3017520Y1869439D01*
X3043427Y1869439D01*
X3058922Y1874520D01*
X3069336Y1879854D01*
X3079750Y1890268D01*
X3084829Y1900681D01*
X3084829Y1921510D01*
X3079750Y1931670D01*
X3069336Y1942084D01*
X3058922Y1947418D01*
X2996691Y1981707D02*
G01*
X2991358Y1992121D01*
X2975863Y2007615D01*
X3084829Y2007615D01*
X2975863Y2093976D02*
G01*
X3048508Y2041905D01*
X3048508Y2119884D01*
X2975863Y2093976D02*
G01*
X3084829Y2093976D01*
X3535172Y1960118D02*
G01*
X3524758Y1954784D01*
X3514343Y1944370D01*
X3509263Y1934210D01*
X3509263Y1913381D01*
X3514343Y1902968D01*
X3524758Y1892554D01*
X3535172Y1887220D01*
X3550920Y1882139D01*
X3576827Y1882139D01*
X3592322Y1887220D01*
X3602736Y1892554D01*
X3613150Y1902968D01*
X3618229Y1913381D01*
X3618229Y1934210D01*
X3613150Y1944370D01*
X3602736Y1954784D01*
X3592322Y1960118D01*
X3530091Y1994407D02*
G01*
X3524758Y2004821D01*
X3509263Y2020315D01*
X3618229Y2020315D01*
X3509263Y2117089D02*
G01*
X3509263Y2065020D01*
X3556000Y2059939D01*
X3550920Y2065020D01*
X3545586Y2080513D01*
X3545586Y2096262D01*
X3550920Y2111755D01*
X3561079Y2122170D01*
X3576827Y2127250D01*
X3587241Y2127250D01*
X3602736Y2122170D01*
X3613150Y2111755D01*
X3618229Y2096262D01*
X3618229Y2080513D01*
X3613150Y2065020D01*
X3608070Y2059939D01*
X3597656Y2054605D01*
X3227577Y914907D02*
G01*
X3222243Y925321D01*
X3211829Y935736D01*
X3201670Y940815D01*
X3180841Y940815D01*
X3170427Y935736D01*
X3160013Y925321D01*
X3154679Y914907D01*
X3149600Y899160D01*
X3149600Y873252D01*
X3154679Y857757D01*
X3160013Y847344D01*
X3170427Y836929D01*
X3180841Y831850D01*
X3201670Y831850D01*
X3211829Y836929D01*
X3222243Y847344D01*
X3227577Y857757D01*
X3261868Y919987D02*
G01*
X3272281Y925321D01*
X3287775Y940815D01*
X3287775Y831850D01*
X3384550Y925321D02*
G01*
X3379215Y935736D01*
X3363722Y940815D01*
X3353308Y940815D01*
X3337559Y935736D01*
X3327400Y919987D01*
X3322065Y894079D01*
X3322065Y868171D01*
X3327400Y847344D01*
X3337559Y836929D01*
X3353308Y831850D01*
X3358388Y831850D01*
X3374136Y836929D01*
X3384550Y847344D01*
X3389629Y862837D01*
X3389629Y868171D01*
X3384550Y883665D01*
X3374136Y894079D01*
X3358388Y899160D01*
X3353308Y899160D01*
X3337559Y894079D01*
X3327400Y883665D01*
X3322065Y868171D01*
X5325872Y5249418D02*
G01*
X5315458Y5244084D01*
X5305043Y5233670D01*
X5299963Y5223510D01*
X5299963Y5202681D01*
X5305043Y5192268D01*
X5315458Y5181854D01*
X5325872Y5176520D01*
X5341620Y5171439D01*
X5367527Y5171439D01*
X5383022Y5176520D01*
X5393436Y5181854D01*
X5403850Y5192268D01*
X5408929Y5202681D01*
X5408929Y5223510D01*
X5403850Y5233670D01*
X5393436Y5244084D01*
X5383022Y5249418D01*
X5320791Y5283707D02*
G01*
X5315458Y5294121D01*
X5299963Y5309615D01*
X5408929Y5309615D01*
X5299963Y5416550D02*
G01*
X5408929Y5364734D01*
X5299963Y5343905D02*
G01*
X5299963Y5416550D01*
X7370572Y5249418D02*
G01*
X7360158Y5244084D01*
X7349743Y5233670D01*
X7344663Y5223510D01*
X7344663Y5202681D01*
X7349743Y5192268D01*
X7360158Y5181854D01*
X7370572Y5176520D01*
X7386320Y5171439D01*
X7412227Y5171439D01*
X7427722Y5176520D01*
X7438136Y5181854D01*
X7448550Y5192268D01*
X7453629Y5202681D01*
X7453629Y5223510D01*
X7448550Y5233670D01*
X7438136Y5244084D01*
X7427722Y5249418D01*
X7365491Y5283707D02*
G01*
X7360158Y5294121D01*
X7344663Y5309615D01*
X7453629Y5309615D01*
X7344663Y5369813D02*
G01*
X7349743Y5354320D01*
X7360158Y5349239D01*
X7370572Y5349239D01*
X7380986Y5354320D01*
X7386320Y5364734D01*
X7391400Y5385562D01*
X7396479Y5401055D01*
X7406893Y5411470D01*
X7417308Y5416550D01*
X7433056Y5416550D01*
X7443470Y5411470D01*
X7448550Y5406389D01*
X7453629Y5390642D01*
X7453629Y5369813D01*
X7448550Y5354320D01*
X7443470Y5349239D01*
X7433056Y5343905D01*
X7417308Y5343905D01*
X7406893Y5349239D01*
X7396479Y5359400D01*
X7391400Y5375147D01*
X7386320Y5395976D01*
X7380986Y5406389D01*
X7370572Y5411470D01*
X7360158Y5411470D01*
X7349743Y5406389D01*
X7344663Y5390642D01*
X7344663Y5369813D01*
X1879092Y611378D02*
G01*
X1868678Y606044D01*
X1858263Y595629D01*
X1853184Y585470D01*
X1853184Y564642D01*
X1858263Y554228D01*
X1868678Y543813D01*
X1879092Y538479D01*
X1894839Y533400D01*
X1920747Y533400D01*
X1936241Y538479D01*
X1946656Y543813D01*
X1957070Y554228D01*
X1962150Y564642D01*
X1962150Y585470D01*
X1957070Y595629D01*
X1946656Y606044D01*
X1936241Y611378D01*
X1874012Y645668D02*
G01*
X1868678Y656081D01*
X1853184Y671576D01*
X1962150Y671576D01*
X1889505Y773429D02*
G01*
X1905000Y768350D01*
X1915413Y757936D01*
X1920747Y742187D01*
X1920747Y737107D01*
X1915413Y721360D01*
X1905000Y711200D01*
X1889505Y705865D01*
X1884426Y705865D01*
X1868678Y711200D01*
X1858263Y721360D01*
X1853184Y737107D01*
X1853184Y742187D01*
X1858263Y757936D01*
X1868678Y768350D01*
X1889505Y773429D01*
X1915413Y773429D01*
X1941575Y768350D01*
X1957070Y757936D01*
X1962150Y742187D01*
X1962150Y731773D01*
X1957070Y716279D01*
X1946656Y711200D01*
X4982718Y224028D02*
G01*
X4977384Y234442D01*
X4966970Y244855D01*
X4956809Y249936D01*
X4935981Y249936D01*
X4925568Y244855D01*
X4915154Y234442D01*
X4909820Y224028D01*
X4904740Y208279D01*
X4904740Y182371D01*
X4909820Y166878D01*
X4915154Y156463D01*
X4925568Y146050D01*
X4935981Y140970D01*
X4956809Y140970D01*
X4966970Y146050D01*
X4977384Y156463D01*
X4982718Y166878D01*
X5022088Y224028D02*
G01*
X5022088Y229107D01*
X5027422Y239521D01*
X5032502Y244855D01*
X5042915Y249936D01*
X5063743Y249936D01*
X5074158Y244855D01*
X5079238Y239521D01*
X5084572Y229107D01*
X5084572Y218694D01*
X5079238Y208279D01*
X5068824Y192786D01*
X5017008Y140970D01*
X5089652Y140970D01*
X5123941Y229107D02*
G01*
X5134356Y234442D01*
X5149850Y249936D01*
X5149850Y140970D01*
X4982718Y757428D02*
G01*
X4977384Y767842D01*
X4966970Y778255D01*
X4956809Y783336D01*
X4935981Y783336D01*
X4925568Y778255D01*
X4915154Y767842D01*
X4909820Y757428D01*
X4904740Y741679D01*
X4904740Y715771D01*
X4909820Y700278D01*
X4915154Y689863D01*
X4925568Y679450D01*
X4935981Y674370D01*
X4956809Y674370D01*
X4966970Y679450D01*
X4977384Y689863D01*
X4982718Y700278D01*
X5022088Y757428D02*
G01*
X5022088Y762507D01*
X5027422Y772921D01*
X5032502Y778255D01*
X5042915Y783336D01*
X5063743Y783336D01*
X5074158Y778255D01*
X5079238Y772921D01*
X5084572Y762507D01*
X5084572Y752094D01*
X5079238Y741679D01*
X5068824Y726186D01*
X5017008Y674370D01*
X5089652Y674370D01*
X5129275Y757428D02*
G01*
X5129275Y762507D01*
X5134356Y772921D01*
X5139690Y778255D01*
X5149850Y783336D01*
X5170677Y783336D01*
X5181091Y778255D01*
X5186425Y772921D01*
X5191506Y762507D01*
X5191506Y752094D01*
X5186425Y741679D01*
X5176011Y726186D01*
X5123941Y674370D01*
X5196840Y674370D01*
X4601972Y1147318D02*
G01*
X4591558Y1141984D01*
X4581143Y1131570D01*
X4576063Y1121410D01*
X4576063Y1100581D01*
X4581143Y1090168D01*
X4591558Y1079754D01*
X4601972Y1074420D01*
X4617720Y1069339D01*
X4643627Y1069339D01*
X4659122Y1074420D01*
X4669536Y1079754D01*
X4679950Y1090168D01*
X4685029Y1100581D01*
X4685029Y1121410D01*
X4679950Y1131570D01*
X4669536Y1141984D01*
X4659122Y1147318D01*
X4601972Y1186687D02*
G01*
X4596891Y1186687D01*
X4586477Y1192021D01*
X4581143Y1197102D01*
X4576063Y1207515D01*
X4576063Y1228344D01*
X4581143Y1238757D01*
X4586477Y1243837D01*
X4596891Y1249171D01*
X4607306Y1249171D01*
X4617720Y1243837D01*
X4633213Y1233423D01*
X4685029Y1181607D01*
X4685029Y1254252D01*
X4576063Y1298955D02*
G01*
X4576063Y1356105D01*
X4617720Y1324863D01*
X4617720Y1340612D01*
X4622800Y1351026D01*
X4627879Y1356105D01*
X4643627Y1361439D01*
X4654041Y1361439D01*
X4669536Y1356105D01*
X4679950Y1345692D01*
X4685029Y1330197D01*
X4685029Y1314450D01*
X4679950Y1298955D01*
X4674870Y1293876D01*
X4664456Y1288542D01*
X7103872Y664718D02*
G01*
X7093458Y659384D01*
X7083043Y648970D01*
X7077963Y638810D01*
X7077963Y617981D01*
X7083043Y607568D01*
X7093458Y597154D01*
X7103872Y591820D01*
X7119620Y586739D01*
X7145527Y586739D01*
X7161022Y591820D01*
X7171436Y597154D01*
X7181850Y607568D01*
X7186929Y617981D01*
X7186929Y638810D01*
X7181850Y648970D01*
X7171436Y659384D01*
X7161022Y664718D01*
X7103872Y704087D02*
G01*
X7098791Y704087D01*
X7088377Y709421D01*
X7083043Y714502D01*
X7077963Y724915D01*
X7077963Y745744D01*
X7083043Y756157D01*
X7088377Y761237D01*
X7098791Y766571D01*
X7109206Y766571D01*
X7119620Y761237D01*
X7135113Y750823D01*
X7186929Y699007D01*
X7186929Y771652D01*
X7077963Y878839D02*
G01*
X7186929Y826770D01*
X7077963Y805942D02*
G01*
X7077963Y878839D01*
X8409177Y5690107D02*
G01*
X8403843Y5700521D01*
X8393429Y5710936D01*
X8383270Y5716015D01*
X8362441Y5716015D01*
X8352027Y5710936D01*
X8341613Y5700521D01*
X8336279Y5690107D01*
X8331200Y5674360D01*
X8331200Y5648452D01*
X8336279Y5632957D01*
X8341613Y5622544D01*
X8352027Y5612129D01*
X8362441Y5607050D01*
X8383270Y5607050D01*
X8393429Y5612129D01*
X8403843Y5622544D01*
X8409177Y5632957D01*
X8448547Y5690107D02*
G01*
X8448547Y5695187D01*
X8453881Y5705602D01*
X8458961Y5710936D01*
X8469375Y5716015D01*
X8490204Y5716015D01*
X8500618Y5710936D01*
X8505697Y5705602D01*
X8511031Y5695187D01*
X8511031Y5684773D01*
X8505697Y5674360D01*
X8495284Y5658865D01*
X8443468Y5607050D01*
X8516111Y5607050D01*
X8581643Y5716015D02*
G01*
X8566150Y5710936D01*
X8555736Y5695187D01*
X8550402Y5669279D01*
X8550402Y5653786D01*
X8555736Y5627623D01*
X8566150Y5612129D01*
X8581643Y5607050D01*
X8592058Y5607050D01*
X8607552Y5612129D01*
X8617965Y5627623D01*
X8623300Y5653786D01*
X8623300Y5669279D01*
X8617965Y5695187D01*
X8607552Y5710936D01*
X8592058Y5716015D01*
X8581643Y5716015D01*
X6523421Y2253447D02*
G01*
X6513007Y2248113D01*
X6502593Y2237699D01*
X6497513Y2227539D01*
X6497513Y2206711D01*
X6502593Y2196297D01*
X6513007Y2185883D01*
X6523421Y2180549D01*
X6539169Y2175469D01*
X6565077Y2175469D01*
X6580571Y2180549D01*
X6590985Y2185883D01*
X6601399Y2196297D01*
X6606479Y2206711D01*
X6606479Y2227539D01*
X6601399Y2237699D01*
X6590985Y2248113D01*
X6580571Y2253447D01*
X6523421Y2292817D02*
G01*
X6518341Y2292817D01*
X6507927Y2298151D01*
X6502593Y2303231D01*
X6497513Y2313645D01*
X6497513Y2334473D01*
X6502593Y2344887D01*
X6507927Y2349967D01*
X6518341Y2355301D01*
X6528755Y2355301D01*
X6539169Y2349967D01*
X6554663Y2339553D01*
X6606479Y2287737D01*
X6606479Y2360381D01*
X6497513Y2446741D02*
G01*
X6570157Y2394671D01*
X6570157Y2472649D01*
X6497513Y2446741D02*
G01*
X6606479Y2446741D01*
X7473147Y4360478D02*
G01*
X7467813Y4370892D01*
X7457399Y4381306D01*
X7447239Y4386386D01*
X7426411Y4386386D01*
X7415997Y4381306D01*
X7405583Y4370892D01*
X7400249Y4360478D01*
X7395169Y4344730D01*
X7395169Y4318822D01*
X7400249Y4303328D01*
X7405583Y4292914D01*
X7415997Y4282500D01*
X7426411Y4277420D01*
X7447239Y4277420D01*
X7457399Y4282500D01*
X7467813Y4292914D01*
X7473147Y4303328D01*
X7512517Y4360478D02*
G01*
X7512517Y4365558D01*
X7517851Y4375972D01*
X7522931Y4381306D01*
X7533345Y4386386D01*
X7554173Y4386386D01*
X7564587Y4381306D01*
X7569667Y4375972D01*
X7575001Y4365558D01*
X7575001Y4355144D01*
X7569667Y4344730D01*
X7559253Y4329236D01*
X7507437Y4277420D01*
X7580081Y4277420D01*
X7676855Y4386386D02*
G01*
X7624785Y4386386D01*
X7619705Y4339650D01*
X7624785Y4344730D01*
X7640279Y4350064D01*
X7656027Y4350064D01*
X7671521Y4344730D01*
X7681935Y4334570D01*
X7687269Y4318822D01*
X7687269Y4308408D01*
X7681935Y4292914D01*
X7671521Y4282500D01*
X7656027Y4277420D01*
X7640279Y4277420D01*
X7624785Y4282500D01*
X7619705Y4287580D01*
X7614371Y4297994D01*
X9530547Y1439478D02*
G01*
X9525213Y1449892D01*
X9514799Y1460306D01*
X9504639Y1465386D01*
X9483811Y1465386D01*
X9473397Y1460306D01*
X9462983Y1449892D01*
X9457649Y1439478D01*
X9452569Y1423730D01*
X9452569Y1397822D01*
X9457649Y1382328D01*
X9462983Y1371914D01*
X9473397Y1361500D01*
X9483811Y1356420D01*
X9504639Y1356420D01*
X9514799Y1361500D01*
X9525213Y1371914D01*
X9530547Y1382328D01*
X9569917Y1439478D02*
G01*
X9569917Y1444558D01*
X9575251Y1454972D01*
X9580331Y1460306D01*
X9590745Y1465386D01*
X9611573Y1465386D01*
X9621987Y1460306D01*
X9627067Y1454972D01*
X9632401Y1444558D01*
X9632401Y1434144D01*
X9627067Y1423730D01*
X9616653Y1408236D01*
X9564837Y1356420D01*
X9637481Y1356420D01*
X9734255Y1449892D02*
G01*
X9728921Y1460306D01*
X9713427Y1465386D01*
X9703013Y1465386D01*
X9687519Y1460306D01*
X9677105Y1444558D01*
X9671771Y1418650D01*
X9671771Y1392742D01*
X9677105Y1371914D01*
X9687519Y1361500D01*
X9703013Y1356420D01*
X9708093Y1356420D01*
X9723841Y1361500D01*
X9734255Y1371914D01*
X9739335Y1387408D01*
X9739335Y1392742D01*
X9734255Y1408236D01*
X9723841Y1418650D01*
X9708093Y1423730D01*
X9703013Y1423730D01*
X9687519Y1418650D01*
X9677105Y1408236D01*
X9671771Y1392742D01*
X6376415Y2044700D02*
G01*
X6267450Y2044700D01*
X6376415Y2044700D02*
G01*
X6376415Y2008378D01*
X6371336Y1992629D01*
X6360922Y1982470D01*
X6350508Y1977136D01*
X6334759Y1972055D01*
X6308852Y1972055D01*
X6293358Y1977136D01*
X6282943Y1982470D01*
X6272529Y1992629D01*
X6267450Y2008378D01*
X6267450Y2044700D01*
X6355588Y1937765D02*
G01*
X6360922Y1927352D01*
X6376415Y1911604D01*
X6267450Y1911604D01*
X3644900Y1410715D02*
G01*
X3644900Y1301750D01*
X3644900Y1410715D02*
G01*
X3681222Y1410715D01*
X3696970Y1405636D01*
X3707129Y1395221D01*
X3712463Y1384807D01*
X3717543Y1369060D01*
X3717543Y1343152D01*
X3712463Y1327657D01*
X3707129Y1317244D01*
X3696970Y1306829D01*
X3681222Y1301750D01*
X3644900Y1301750D01*
X3751834Y1410715D02*
G01*
X3793490Y1301750D01*
X3835145Y1410715D02*
G01*
X3793490Y1301750D01*
X3869436Y1389887D02*
G01*
X3879850Y1395221D01*
X3895343Y1410715D01*
X3895343Y1301750D01*
X1828800Y1525015D02*
G01*
X1828800Y1416050D01*
X1828800Y1416050D02*
G01*
X1891029Y1416050D01*
X1925320Y1504187D02*
G01*
X1935734Y1509521D01*
X1951481Y1525015D01*
X1951481Y1416050D01*
X9474200Y4531918D02*
G01*
X9474200Y4422952D01*
X9474200Y4422952D02*
G01*
X9536429Y4422952D01*
X9570720Y4531918D02*
G01*
X9570720Y4422952D01*
X9570720Y4531918D02*
G01*
X9638284Y4531918D01*
X9570720Y4480102D02*
G01*
X9612375Y4480102D01*
X9570720Y4422952D02*
G01*
X9638284Y4422952D01*
X9672574Y4531918D02*
G01*
X9672574Y4422952D01*
X9672574Y4531918D02*
G01*
X9709150Y4531918D01*
X9724643Y4526838D01*
X9735058Y4516424D01*
X9740138Y4506010D01*
X9745472Y4490262D01*
X9745472Y4464354D01*
X9740138Y4448860D01*
X9735058Y4438446D01*
X9724643Y4428032D01*
X9709150Y4422952D01*
X9672574Y4422952D01*
X9779761Y4511090D02*
G01*
X9790175Y4516424D01*
X9805670Y4531918D01*
X9805670Y4422952D01*
X10211815Y5384800D02*
G01*
X10102850Y5384800D01*
X10211815Y5384800D02*
G01*
X10211815Y5338063D01*
X10206736Y5322570D01*
X10201402Y5317236D01*
X10190988Y5312155D01*
X10175493Y5312155D01*
X10165079Y5317236D01*
X10160000Y5322570D01*
X10154665Y5338063D01*
X10154665Y5384800D01*
X10211815Y5246623D02*
G01*
X10206736Y5257037D01*
X10196322Y5267452D01*
X10185908Y5272531D01*
X10170159Y5277865D01*
X10144252Y5277865D01*
X10128758Y5272531D01*
X10118343Y5267452D01*
X10107929Y5257037D01*
X10102850Y5246623D01*
X10102850Y5225795D01*
X10107929Y5215381D01*
X10118343Y5204968D01*
X10128758Y5199887D01*
X10144252Y5194554D01*
X10170159Y5194554D01*
X10185908Y5199887D01*
X10196322Y5204968D01*
X10206736Y5215381D01*
X10211815Y5225795D01*
X10211815Y5246623D01*
X10211815Y5160263D02*
G01*
X10102850Y5118862D01*
X10211815Y5077205D02*
G01*
X10102850Y5118862D01*
X10211815Y5042915D02*
G01*
X10102850Y5042915D01*
X10211815Y5042915D02*
G01*
X10211815Y4975352D01*
X10160000Y5042915D02*
G01*
X10160000Y5001260D01*
X10102850Y5042915D02*
G01*
X10102850Y4975352D01*
X10211815Y4941062D02*
G01*
X10102850Y4941062D01*
X10211815Y4941062D02*
G01*
X10211815Y4894326D01*
X10206736Y4878831D01*
X10201402Y4873497D01*
X10190988Y4868418D01*
X10180574Y4868418D01*
X10170159Y4873497D01*
X10165079Y4878831D01*
X10160000Y4894326D01*
X10160000Y4941062D01*
X10160000Y4904739D02*
G01*
X10102850Y4868418D01*
X9623043Y3325621D02*
G01*
X9612629Y3336036D01*
X9597136Y3341115D01*
X9576308Y3341115D01*
X9560813Y3336036D01*
X9550400Y3325621D01*
X9550400Y3315207D01*
X9555479Y3304794D01*
X9560813Y3299460D01*
X9571227Y3294379D01*
X9602470Y3283965D01*
X9612629Y3278886D01*
X9617963Y3273552D01*
X9623043Y3263137D01*
X9623043Y3247644D01*
X9612629Y3237229D01*
X9597136Y3232150D01*
X9576308Y3232150D01*
X9560813Y3237229D01*
X9550400Y3247644D01*
X9657334Y3341115D02*
G01*
X9657334Y3232150D01*
X9657334Y3341115D02*
G01*
X9704070Y3341115D01*
X9719818Y3336036D01*
X9724897Y3330702D01*
X9730231Y3320287D01*
X9730231Y3304794D01*
X9724897Y3294379D01*
X9719818Y3289300D01*
X9704070Y3283965D01*
X9657334Y3283965D01*
X9764522Y3341115D02*
G01*
X9764522Y3232150D01*
X9837165Y3341115D02*
G01*
X9764522Y3268471D01*
X9790429Y3294379D02*
G01*
X9837165Y3232150D01*
X4837684Y2037842D02*
G01*
X4842763Y2027428D01*
X4853177Y2017013D01*
X4863591Y2011679D01*
X4879340Y2006600D01*
X4905247Y2006600D01*
X4920741Y2011679D01*
X4931156Y2017013D01*
X4941570Y2027428D01*
X4946650Y2037842D01*
X4946650Y2058670D01*
X4941570Y2068829D01*
X4931156Y2079244D01*
X4920741Y2084578D01*
X4905247Y2089657D01*
X4879340Y2089657D01*
X4863591Y2084578D01*
X4853177Y2079244D01*
X4842763Y2068829D01*
X4837684Y2058670D01*
X4837684Y2037842D01*
X4926075Y2053336D02*
G01*
X4957063Y2084578D01*
X4858511Y2123947D02*
G01*
X4853177Y2134362D01*
X4837684Y2150110D01*
X4946650Y2150110D01*
X4837684Y3289300D02*
G01*
X4946650Y3289300D01*
X4837684Y3289300D02*
G01*
X4837684Y3336036D01*
X4842763Y3351529D01*
X4848097Y3356863D01*
X4858511Y3361944D01*
X4868925Y3361944D01*
X4879340Y3356863D01*
X4884420Y3351529D01*
X4889500Y3336036D01*
X4889500Y3289300D01*
X4889500Y3325621D02*
G01*
X4946650Y3361944D01*
X4858511Y3396234D02*
G01*
X4853177Y3406647D01*
X4837684Y3422395D01*
X4946650Y3422395D01*
X5345684Y3276600D02*
G01*
X5454650Y3276600D01*
X5345684Y3276600D02*
G01*
X5345684Y3323336D01*
X5350763Y3338829D01*
X5356097Y3344163D01*
X5366511Y3349244D01*
X5376925Y3349244D01*
X5387340Y3344163D01*
X5392420Y3338829D01*
X5397500Y3323336D01*
X5397500Y3276600D01*
X5397500Y3312921D02*
G01*
X5454650Y3349244D01*
X5371591Y3388868D02*
G01*
X5366511Y3388868D01*
X5356097Y3393947D01*
X5350763Y3399281D01*
X5345684Y3409695D01*
X5345684Y3430270D01*
X5350763Y3440684D01*
X5356097Y3446018D01*
X5366511Y3451097D01*
X5376925Y3451097D01*
X5387340Y3446018D01*
X5402834Y3435604D01*
X5454650Y3383534D01*
X5454650Y3456431D01*
X5853684Y3302000D02*
G01*
X5962650Y3302000D01*
X5853684Y3302000D02*
G01*
X5853684Y3348736D01*
X5858763Y3364229D01*
X5864097Y3369563D01*
X5874511Y3374644D01*
X5884925Y3374644D01*
X5895340Y3369563D01*
X5900420Y3364229D01*
X5905500Y3348736D01*
X5905500Y3302000D01*
X5905500Y3338321D02*
G01*
X5962650Y3374644D01*
X5853684Y3419347D02*
G01*
X5853684Y3476497D01*
X5895340Y3445510D01*
X5895340Y3461004D01*
X5900420Y3471418D01*
X5905500Y3476497D01*
X5921247Y3481831D01*
X5931661Y3481831D01*
X5947156Y3476497D01*
X5957570Y3466084D01*
X5962650Y3450589D01*
X5962650Y3435095D01*
X5957570Y3419347D01*
X5952490Y3414268D01*
X5942075Y3408934D01*
X6094984Y508000D02*
G01*
X6203950Y508000D01*
X6094984Y508000D02*
G01*
X6094984Y554736D01*
X6100063Y570229D01*
X6105397Y575563D01*
X6115811Y580644D01*
X6126225Y580644D01*
X6136640Y575563D01*
X6141720Y570229D01*
X6146800Y554736D01*
X6146800Y508000D01*
X6146800Y544321D02*
G01*
X6203950Y580644D01*
X6094984Y667004D02*
G01*
X6167627Y614934D01*
X6167627Y692912D01*
X6094984Y667004D02*
G01*
X6203950Y667004D01*
X6577584Y520700D02*
G01*
X6686550Y520700D01*
X6577584Y520700D02*
G01*
X6577584Y567436D01*
X6582663Y582929D01*
X6587997Y588263D01*
X6598411Y593344D01*
X6608825Y593344D01*
X6619240Y588263D01*
X6624320Y582929D01*
X6629400Y567436D01*
X6629400Y520700D01*
X6629400Y557021D02*
G01*
X6686550Y593344D01*
X6577584Y690118D02*
G01*
X6577584Y638047D01*
X6624320Y632968D01*
X6619240Y638047D01*
X6613906Y653795D01*
X6613906Y669289D01*
X6619240Y684784D01*
X6629400Y695197D01*
X6645147Y700531D01*
X6655561Y700531D01*
X6671056Y695197D01*
X6681470Y684784D01*
X6686550Y669289D01*
X6686550Y653795D01*
X6681470Y638047D01*
X6676390Y632968D01*
X6665975Y627634D01*
X2616200Y280415D02*
G01*
X2616200Y171450D01*
X2616200Y280415D02*
G01*
X2662936Y280415D01*
X2678429Y275336D01*
X2683763Y270002D01*
X2688843Y259587D01*
X2688843Y249173D01*
X2683763Y238760D01*
X2678429Y233679D01*
X2662936Y228600D01*
X2616200Y228600D01*
X2652522Y228600D02*
G01*
X2688843Y171450D01*
X2796031Y280415D02*
G01*
X2743961Y171450D01*
X2723134Y280415D02*
G01*
X2796031Y280415D01*
X5574284Y444500D02*
G01*
X5683250Y444500D01*
X5574284Y444500D02*
G01*
X5574284Y491236D01*
X5579363Y506729D01*
X5584697Y512063D01*
X5595111Y517144D01*
X5605525Y517144D01*
X5615940Y512063D01*
X5621020Y506729D01*
X5626100Y491236D01*
X5626100Y444500D01*
X5626100Y480821D02*
G01*
X5683250Y517144D01*
X5574284Y577595D02*
G01*
X5579363Y561847D01*
X5589777Y556768D01*
X5600191Y556768D01*
X5610606Y561847D01*
X5615940Y572262D01*
X5621020Y593089D01*
X5626100Y608584D01*
X5636513Y618997D01*
X5646927Y624331D01*
X5662675Y624331D01*
X5673090Y618997D01*
X5678170Y613918D01*
X5683250Y598170D01*
X5683250Y577595D01*
X5678170Y561847D01*
X5673090Y556768D01*
X5662675Y551434D01*
X5646927Y551434D01*
X5636513Y556768D01*
X5626100Y567181D01*
X5621020Y582676D01*
X5615940Y603504D01*
X5610606Y613918D01*
X5600191Y618997D01*
X5589777Y618997D01*
X5579363Y613918D01*
X5574284Y598170D01*
X5574284Y577595D01*
X8343900Y1017015D02*
G01*
X8343900Y908050D01*
X8343900Y1017015D02*
G01*
X8390636Y1017015D01*
X8406129Y1011936D01*
X8411463Y1006602D01*
X8416543Y996187D01*
X8416543Y985773D01*
X8411463Y975360D01*
X8406129Y970279D01*
X8390636Y965200D01*
X8343900Y965200D01*
X8380222Y965200D02*
G01*
X8416543Y908050D01*
X8450834Y996187D02*
G01*
X8461247Y1001521D01*
X8476995Y1017015D01*
X8476995Y908050D01*
X8542274Y1017015D02*
G01*
X8526779Y1011936D01*
X8516365Y996187D01*
X8511286Y970279D01*
X8511286Y954786D01*
X8516365Y928623D01*
X8526779Y913129D01*
X8542274Y908050D01*
X8552688Y908050D01*
X8568436Y913129D01*
X8578850Y928623D01*
X8583929Y954786D01*
X8583929Y970279D01*
X8578850Y996187D01*
X8568436Y1011936D01*
X8552688Y1017015D01*
X8542274Y1017015D01*
X8394700Y4839715D02*
G01*
X8394700Y4730750D01*
X8394700Y4839715D02*
G01*
X8441436Y4839715D01*
X8456929Y4834636D01*
X8462263Y4829302D01*
X8467343Y4818887D01*
X8467343Y4808473D01*
X8462263Y4798060D01*
X8456929Y4792979D01*
X8441436Y4787900D01*
X8394700Y4787900D01*
X8431022Y4787900D02*
G01*
X8467343Y4730750D01*
X8501634Y4818887D02*
G01*
X8512047Y4824221D01*
X8527795Y4839715D01*
X8527795Y4730750D01*
X8562086Y4818887D02*
G01*
X8572500Y4824221D01*
X8587993Y4839715D01*
X8587993Y4730750D01*
X1511300Y191515D02*
G01*
X1511300Y82550D01*
X1511300Y191515D02*
G01*
X1558036Y191515D01*
X1573529Y186436D01*
X1578863Y181102D01*
X1583944Y170687D01*
X1583944Y160273D01*
X1578863Y149860D01*
X1573529Y144779D01*
X1558036Y139700D01*
X1511300Y139700D01*
X1547621Y139700D02*
G01*
X1583944Y82550D01*
X1680718Y176021D02*
G01*
X1675384Y186436D01*
X1659889Y191515D01*
X1649476Y191515D01*
X1633981Y186436D01*
X1623568Y170687D01*
X1618234Y144779D01*
X1618234Y118871D01*
X1623568Y98044D01*
X1633981Y87629D01*
X1649476Y82550D01*
X1654810Y82550D01*
X1670304Y87629D01*
X1680718Y98044D01*
X1685797Y113537D01*
X1685797Y118871D01*
X1680718Y134365D01*
X1670304Y144779D01*
X1654810Y149860D01*
X1649476Y149860D01*
X1633981Y144779D01*
X1623568Y134365D01*
X1618234Y118871D01*
X3581400Y115315D02*
G01*
X3581400Y6350D01*
X3581400Y115315D02*
G01*
X3628136Y115315D01*
X3643629Y110236D01*
X3648963Y104902D01*
X3654043Y94487D01*
X3654043Y84073D01*
X3648963Y73660D01*
X3643629Y68579D01*
X3628136Y63500D01*
X3581400Y63500D01*
X3617722Y63500D02*
G01*
X3654043Y6350D01*
X3755897Y78994D02*
G01*
X3750818Y63500D01*
X3740404Y53086D01*
X3724909Y47752D01*
X3719575Y47752D01*
X3704081Y53086D01*
X3693668Y63500D01*
X3688334Y78994D01*
X3688334Y84073D01*
X3693668Y99821D01*
X3704081Y110236D01*
X3719575Y115315D01*
X3724909Y115315D01*
X3740404Y110236D01*
X3750818Y99821D01*
X3755897Y78994D01*
X3755897Y53086D01*
X3750818Y26923D01*
X3740404Y11429D01*
X3724909Y6350D01*
X3714495Y6350D01*
X3698747Y11429D01*
X3693668Y21844D01*
X1916684Y3175000D02*
G01*
X1994661Y3175000D01*
X2010156Y3180079D01*
X2020570Y3190494D01*
X2025650Y3206242D01*
X2025650Y3216655D01*
X2020570Y3232150D01*
X2010156Y3242563D01*
X1994661Y3247644D01*
X1916684Y3247644D01*
X1937511Y3281934D02*
G01*
X1932177Y3292347D01*
X1916684Y3308095D01*
X2025650Y3308095D01*
X7479284Y2108200D02*
G01*
X7557261Y2108200D01*
X7572756Y2113279D01*
X7583170Y2123694D01*
X7588250Y2139442D01*
X7588250Y2149855D01*
X7583170Y2165350D01*
X7572756Y2175763D01*
X7557261Y2180844D01*
X7479284Y2180844D01*
X7505191Y2220468D02*
G01*
X7500111Y2220468D01*
X7489697Y2225547D01*
X7484363Y2230881D01*
X7479284Y2241295D01*
X7479284Y2261870D01*
X7484363Y2272284D01*
X7489697Y2277618D01*
X7500111Y2282697D01*
X7510525Y2282697D01*
X7520940Y2277618D01*
X7536434Y2267204D01*
X7588250Y2215134D01*
X7588250Y2288031D01*
X6525798Y5741916D02*
G01*
X6525798Y5663938D01*
X6530878Y5648444D01*
X6541292Y5638030D01*
X6557040Y5632950D01*
X6567454Y5632950D01*
X6582948Y5638030D01*
X6593362Y5648444D01*
X6598442Y5663938D01*
X6598442Y5741916D01*
X6643146Y5741916D02*
G01*
X6700296Y5741916D01*
X6669308Y5700260D01*
X6684802Y5700260D01*
X6695216Y5695180D01*
X6700296Y5690100D01*
X6705630Y5674352D01*
X6705630Y5663938D01*
X6700296Y5648444D01*
X6689882Y5638030D01*
X6674388Y5632950D01*
X6658894Y5632950D01*
X6643146Y5638030D01*
X6638066Y5643110D01*
X6632732Y5653524D01*
G36*
X8547100Y5473700D02*
G01*
X8547100Y5016500D01*
X8558580Y5027422D01*
X8569502Y5038902D01*
X8579815Y5050942D01*
X8589467Y5063540D01*
X8598509Y5076545D01*
X8606840Y5090058D01*
X8614460Y5103926D01*
X8621369Y5118201D01*
X8627516Y5132832D01*
X8632901Y5147716D01*
X8637524Y5162905D01*
X8641384Y5178247D01*
X8644382Y5193842D01*
X8646617Y5209489D01*
X8648039Y5225288D01*
X8648649Y5241137D01*
X8648446Y5256987D01*
X8647430Y5272786D01*
X8645601Y5288534D01*
X8642959Y5304180D01*
X8641384Y5311952D01*
X8637524Y5327294D01*
X8632901Y5342483D01*
X8627516Y5357368D01*
X8621369Y5371998D01*
X8614460Y5386273D01*
X8606840Y5400141D01*
X8598509Y5413654D01*
X8589467Y5426659D01*
X8579815Y5439257D01*
X8569502Y5451297D01*
X8558580Y5462778D01*
G37*
G36*
X7023100Y2566720D02*
G01*
X7004202Y2566314D01*
X6985304Y2565044D01*
X6966508Y2563012D01*
X6947814Y2560116D01*
X6929272Y2556459D01*
X6910882Y2551988D01*
X6892696Y2546705D01*
X6874814Y2540660D01*
X6857187Y2533802D01*
X6839864Y2526233D01*
X6822846Y2517851D01*
X6806285Y2508808D01*
X6790080Y2499004D01*
X6774332Y2488539D01*
X6759041Y2477414D01*
X6744258Y2465578D01*
X6730034Y2453132D01*
X6723125Y2446680D01*
X7323074Y2446680D01*
X7309103Y2459431D01*
X7294625Y2471572D01*
X7279589Y2483053D01*
X7264044Y2493873D01*
X7248093Y2503982D01*
X7231684Y2513431D01*
X7214870Y2522118D01*
X7197750Y2530094D01*
X7180275Y2537307D01*
X7162495Y2543759D01*
X7144410Y2549448D01*
X7126173Y2554325D01*
X7107681Y2558389D01*
X7089038Y2561691D01*
X7070293Y2564130D01*
X7051446Y2565755D01*
X7032548Y2566619D01*
G37*
G36*
X7666380Y4160824D02*
G01*
X7666380Y3560775D01*
X7679131Y3574796D01*
X7691272Y3589274D01*
X7702753Y3604310D01*
X7713573Y3619855D01*
X7723682Y3635806D01*
X7733131Y3652215D01*
X7741818Y3669029D01*
X7749794Y3686149D01*
X7757007Y3703624D01*
X7763459Y3721404D01*
X7769148Y3739489D01*
X7774025Y3757726D01*
X7778089Y3776218D01*
X7781391Y3794861D01*
X7783830Y3813606D01*
X7785455Y3832453D01*
X7786319Y3851351D01*
X7786319Y3870248D01*
X7785455Y3889146D01*
X7783830Y3907993D01*
X7781391Y3926738D01*
X7778089Y3945382D01*
X7774025Y3963873D01*
X7769148Y3982110D01*
X7763459Y4000195D01*
X7757007Y4017975D01*
X7749794Y4035450D01*
X7741818Y4052570D01*
X7733131Y4069384D01*
X7723682Y4085793D01*
X7713573Y4101744D01*
X7702753Y4117289D01*
X7691272Y4132326D01*
X7679131Y4146804D01*
G37*
G36*
X9723780Y1239824D02*
G01*
X9723780Y639775D01*
X9736531Y653796D01*
X9748672Y668274D01*
X9760153Y683310D01*
X9770973Y698855D01*
X9781082Y714806D01*
X9790531Y731215D01*
X9799218Y748030D01*
X9807194Y765149D01*
X9814407Y782624D01*
X9820859Y800404D01*
X9826548Y818489D01*
X9831425Y836726D01*
X9835489Y855218D01*
X9838791Y873861D01*
X9841230Y892606D01*
X9842855Y911453D01*
X9843719Y930351D01*
X9843719Y949248D01*
X9842855Y968146D01*
X9841230Y986993D01*
X9838791Y1005738D01*
X9835489Y1024382D01*
X9831425Y1042873D01*
X9826548Y1061110D01*
X9820859Y1079195D01*
X9814407Y1096975D01*
X9807194Y1114450D01*
X9799218Y1131570D01*
X9790531Y1148384D01*
X9781082Y1164793D01*
X9770973Y1180744D01*
X9760153Y1196289D01*
X9748672Y1211326D01*
X9736531Y1225804D01*
G37*
D25*
X1397254Y5194045D02*
G01*
X1397254Y4686045D01*
X1651254Y4686045D01*
X1651254Y5194045D01*
X1397254Y5194045D01*
X1917954Y5194045D02*
G01*
X1917954Y4686045D01*
X2171954Y4686045D01*
X2171954Y5194045D01*
X1917954Y5194045D01*
X2413254Y5181345D02*
G01*
X2413254Y4673345D01*
X2667254Y4673345D01*
X2667254Y5181345D01*
X2413254Y5181345D01*
X2895854Y5702045D02*
G01*
X2895854Y5194045D01*
X3149854Y5194045D01*
X3149854Y5702045D01*
X2895854Y5702045D01*
X3695954Y5714745D02*
G01*
X3695954Y5206745D01*
X3949954Y5206745D01*
X3949954Y5714745D01*
X3695954Y5714745D01*
X4686045Y5498845D02*
G01*
X4178045Y5498845D01*
X4178045Y5244845D01*
X4686045Y5244845D01*
X4686045Y5498845D01*
X3175254Y4940045D02*
G01*
X3175254Y4432045D01*
X3429254Y4432045D01*
X3429254Y4940045D01*
X3175254Y4940045D01*
X3695954Y4940045D02*
G01*
X3695954Y4432045D01*
X3949954Y4432045D01*
X3949954Y4940045D01*
X3695954Y4940045D01*
X4571745Y4470145D02*
G01*
X4063745Y4470145D01*
X4063745Y4216145D01*
X4571745Y4216145D01*
X4571745Y4470145D01*
X1143254Y2146045D02*
G01*
X1143254Y1638045D01*
X1397254Y1638045D01*
X1397254Y2146045D01*
X1143254Y2146045D01*
X1651254Y2120645D02*
G01*
X1651254Y1612645D01*
X1905254Y1612645D01*
X1905254Y2120645D01*
X1651254Y2120645D01*
X2146554Y2146045D02*
G01*
X2146554Y1638045D01*
X2400554Y1638045D01*
X2400554Y2146045D01*
X2146554Y2146045D01*
X2654554Y2146045D02*
G01*
X2654554Y1638045D01*
X2908554Y1638045D01*
X2908554Y2146045D01*
X2654554Y2146045D01*
X3149854Y2146045D02*
G01*
X3149854Y1638045D01*
X3403854Y1638045D01*
X3403854Y2146045D01*
X3149854Y2146045D01*
X3683254Y2158745D02*
G01*
X3683254Y1650745D01*
X3937254Y1650745D01*
X3937254Y2158745D01*
X3683254Y2158745D01*
X3048254Y495554D02*
G01*
X3556254Y495554D01*
X3556254Y749554D01*
X3048254Y749554D01*
X3048254Y495554D01*
X5473954Y5448045D02*
G01*
X5473954Y4940045D01*
X5727954Y4940045D01*
X5727954Y5448045D01*
X5473954Y5448045D01*
X7518654Y5448045D02*
G01*
X7518654Y4940045D01*
X7772654Y4940045D01*
X7772654Y5448045D01*
X7518654Y5448045D01*
X2552445Y774445D02*
G01*
X2044445Y774445D01*
X2044445Y520445D01*
X2552445Y520445D01*
X2552445Y774445D01*
X5181345Y75945D02*
G01*
X4673345Y75945D01*
X4673345Y-178054D01*
X5181345Y-178054D01*
X5181345Y75945D01*
X5181345Y609345D02*
G01*
X4673345Y609345D01*
X4673345Y355345D01*
X5181345Y355345D01*
X5181345Y609345D01*
X4750054Y1345945D02*
G01*
X4750054Y837945D01*
X5004054Y837945D01*
X5004054Y1345945D01*
X4750054Y1345945D01*
X7251954Y863345D02*
G01*
X7251954Y355345D01*
X7505954Y355345D01*
X7505954Y863345D01*
X7251954Y863345D01*
D10*
X8153400Y5397500D02*
G01*
X8255000Y5397500D01*
X8204200Y5448300D02*
G01*
X8204200Y5346700D01*
X6803100Y2071700D02*
G01*
X6803100Y1947240D01*
X6871680Y2008200D02*
G01*
X6737060Y2008200D01*
X7291400Y4080799D02*
G01*
X7166940Y4080799D01*
X7227900Y4012219D02*
G01*
X7227900Y4146839D01*
X9348800Y1159799D02*
G01*
X9224340Y1159799D01*
X9285300Y1091219D02*
G01*
X9285300Y1225839D01*
X6210300Y2222500D02*
G01*
X6210300Y1866900D01*
X6134100Y1866900D02*
G01*
X6057900Y1866900D01*
X6057900Y1866900D02*
G01*
X6057900Y2222500D01*
X6057900Y2222500D02*
G01*
X6134100Y2222500D01*
X6134100Y2222500D02*
G01*
X6210300Y2222500D01*
X6134100Y1866900D02*
G01*
X6134100Y1790700D01*
X6134100Y2222500D02*
G01*
X6134100Y2298700D01*
X6210300Y1866900D02*
G01*
X6134100Y1866900D01*
X6197600Y2171700D02*
G01*
X6070600Y2171700D01*
D26*
X3869255Y1270000D02*
G01*
X3869255Y965200D01*
X3365500Y1117600D02*
G01*
X3492500Y1117600D01*
X3492500Y1219200D01*
X3594100Y1117600D01*
X3492500Y1016000D01*
X3492500Y1117600D01*
X3492500Y1219200D01*
X3594100Y1117600D01*
X3594100Y1168400D01*
X3594100Y1193800D01*
X3568700Y1219200D01*
X3594100Y1193800D01*
X3594100Y1041400D01*
X3619500Y1016000D01*
X3594100Y1041400D01*
X3594100Y1117600D01*
X3594100Y1117600D01*
X3721100Y1117600D01*
X3792220Y1270000D02*
G01*
X3792133Y965200D01*
X3841747Y1270000D02*
G01*
X3842171Y965200D01*
X3816350Y965200D02*
G01*
X3816350Y1270000D01*
X3314700Y1270000D02*
G01*
X3975100Y1270000D01*
X3975100Y965200D01*
X3340100Y965200D01*
X3314700Y965200D01*
X3314700Y1270000D01*
X3314700Y1270000D01*
D10*
X1254760Y904239D02*
G01*
X1254760Y1356360D01*
X1254760Y1356360D02*
G01*
X2402840Y1356360D01*
X2402840Y1356360D02*
G01*
X2402840Y904239D01*
X2402840Y904239D02*
G01*
X1254760Y904239D01*
X9369600Y3929903D02*
G01*
X9629599Y3929903D01*
X9664700Y5765800D02*
G01*
X9791700Y5689600D01*
X9918700Y5765800D01*
X9029700Y4978400D02*
G01*
X9029700Y5765800D01*
X10045700Y4978400D02*
G01*
X9029700Y4978400D01*
X10045700Y5765800D02*
G01*
X10045700Y4978400D01*
X9029700Y5765800D02*
G01*
X10045700Y5765800D01*
X9156700Y5765800D02*
G01*
X9283700Y5689600D01*
X9410700Y5765800D01*
X10083800Y2476500D02*
G01*
X10007600Y2349500D01*
X10083800Y2222500D01*
X9296400Y3111500D02*
G01*
X10083800Y3111500D01*
X9296400Y2095500D02*
G01*
X9296400Y3111500D01*
X10083800Y2095500D02*
G01*
X9296400Y2095500D01*
X10083800Y3111500D02*
G01*
X10083800Y2095500D01*
X10083800Y2984500D02*
G01*
X10007600Y2857500D01*
X10083800Y2730500D01*
X5410200Y2222500D02*
G01*
X5410200Y1826513D01*
X5224779Y2974339D02*
G01*
X4986020Y2974339D01*
X4986020Y2974339D02*
G01*
X4986020Y3604260D01*
X4986020Y3604260D02*
G01*
X5224779Y3604260D01*
X5224779Y3604260D02*
G01*
X5224779Y2974339D01*
X5732779Y2961639D02*
G01*
X5494020Y2961639D01*
X5494020Y2961639D02*
G01*
X5494020Y3591560D01*
X5494020Y3591560D02*
G01*
X5732779Y3591560D01*
X5732779Y3591560D02*
G01*
X5732779Y2961639D01*
X6240779Y2987039D02*
G01*
X6002020Y2987039D01*
X6002020Y2987039D02*
G01*
X6002020Y3616960D01*
X6002020Y3616960D02*
G01*
X6240779Y3616960D01*
X6240779Y3616960D02*
G01*
X6240779Y2987039D01*
X6482079Y193039D02*
G01*
X6243320Y193039D01*
X6243320Y193039D02*
G01*
X6243320Y822960D01*
X6243320Y822960D02*
G01*
X6482079Y822960D01*
X6482079Y822960D02*
G01*
X6482079Y193039D01*
X6964679Y205739D02*
G01*
X6725920Y205739D01*
X6725920Y205739D02*
G01*
X6725920Y835660D01*
X6725920Y835660D02*
G01*
X6964679Y835660D01*
X6964679Y835660D02*
G01*
X6964679Y205739D01*
X3020059Y360679D02*
G01*
X3020059Y121920D01*
X3020059Y121920D02*
G01*
X2390140Y121920D01*
X2390140Y121920D02*
G01*
X2390140Y360679D01*
X2390140Y360679D02*
G01*
X3020059Y360679D01*
X5748020Y810260D02*
G01*
X5986779Y810260D01*
X5986779Y810260D02*
G01*
X5986779Y180339D01*
X5986779Y180339D02*
G01*
X5748020Y180339D01*
X5748020Y180339D02*
G01*
X5748020Y810260D01*
X8028940Y629920D02*
G01*
X8028940Y868679D01*
X8028940Y868679D02*
G01*
X8658859Y868679D01*
X8658859Y868679D02*
G01*
X8658859Y629920D01*
X8658859Y629920D02*
G01*
X8028940Y629920D01*
X8079740Y4452620D02*
G01*
X8079740Y4691379D01*
X8079740Y4691379D02*
G01*
X8709659Y4691379D01*
X8709659Y4691379D02*
G01*
X8709659Y4452620D01*
X8709659Y4452620D02*
G01*
X8079740Y4452620D01*
X876300Y50800D02*
G01*
X2146300Y50800D01*
X2146300Y-457200D01*
X876300Y-457200D01*
X876300Y50800D01*
X1384300Y-457200D02*
G01*
X1638300Y-457200D01*
X1638300Y-1092200D01*
X1384300Y-1092200D01*
X1384300Y-457200D01*
X2946400Y-25400D02*
G01*
X4216400Y-25400D01*
X4216400Y-533400D01*
X2946400Y-533400D01*
X2946400Y-25400D01*
X3454400Y-533400D02*
G01*
X3708400Y-533400D01*
X3708400Y-1168400D01*
X3454400Y-1168400D01*
X3454400Y-533400D01*
X2057400Y3048000D02*
G01*
X2057400Y2540000D01*
X4597400Y2540000D01*
X4597400Y3810000D01*
X2057400Y3810000D01*
X2057400Y3302000D01*
X7632700Y2412362D02*
G01*
X8648700Y2412362D01*
X8648700Y1854200D02*
G01*
X8648700Y2412362D01*
X7632700Y1854200D02*
G01*
X7632700Y2056462D01*
X7632700Y2210120D02*
G01*
X7632700Y2412362D01*
X7632700Y1854200D02*
G01*
X8648700Y1854200D01*
X6008400Y5560908D02*
G01*
X7068596Y5560908D01*
X7068596Y5081102D01*
X6008400Y5081102D01*
X6008400Y5560400D01*
X6008400Y5560908D01*
X7068494Y5500997D02*
G01*
X6008502Y5500997D01*
G75*
G01*
X6623050Y2171954D02*
G03*
X6623050Y2179066I399984J3556D01*
G75*
G01*
X7391654Y4260850D02*
G03*
X7398766Y4260850I3556J-399984D01*
G75*
G01*
X9449054Y1339850D02*
G03*
X9456166Y1339850I3556J-399984D01*
G75*
G01*
X9637776Y3932733D02*
G03*
X9361424Y3932733I-138176J220244D01*
G75*
G01*
X5245100Y2235200D02*
G03*
X5249939Y1803677I125982J-214376D01*
G75*
G01*
X2057400Y3302000D02*
G02*
X2057400Y3048000I0J-127000D01*
G75*
G01*
X7632700Y2209300D02*
G02*
X7632700Y2056900I0J-76200D01*
D27*
G75*
G01*
X6261501Y5028501D02*
G03*
X6261755Y5028501I127J-19999D01*
D10*
G75*
G01
X8646160Y5245100D02*
G03X8646160Y5245100I-314960J0D01*
M02*
